<svg width="64" height="64" viewBox="0 0 64 64" fill="none" xmlns="http://www.w3.org/2000/svg">
<path d="M64 31.9991C64 49.6721 49.6739 63.9982 31.9982 63.9982C14.327 63.9982 0 49.6721 0 31.9991C0 14.327 14.327 0 31.9982 0C49.6739 0 64 14.327 64 31.9991Z" fill="#33BF8D"/>
<path fill-rule="evenodd" clip-rule="evenodd" d="M32.3164 8.23706C29.7701 8.23706 27.3212 8.65239 25.0268 9.4083C25.4658 9.78627 25.8718 10.2005 26.2412 10.6464C28.1698 10.0877 30.2066 9.78233 32.3164 9.78233C44.3488 9.78233 54.0874 19.5209 54.0874 31.5534C54.0874 43.5859 44.3488 53.3244 32.3164 53.3244C20.2839 53.3244 10.5453 43.5859 10.5453 31.5534C10.5453 29.2694 10.8974 27.068 11.5484 25.0004C11.1122 24.6199 10.7091 24.2038 10.3431 23.7558C9.47645 26.195 9 28.8185 9 31.5534C9 44.421 19.4486 54.8696 32.3163 54.8696C45.1839 54.8696 55.6325 44.421 55.6325 31.5534C55.6325 18.6857 45.1839 8.23711 32.3163 8.23711L32.3164 8.23706Z" fill="white"/>
<path d="M31.8013 16.5289V29.3386C31.3008 29.455 30.8546 29.7374 30.5348 30.1395C30.215 30.5415 30.0404 31.0402 30.04 31.554C30.04 32.1576 30.28 32.7367 30.7069 33.1636C31.1337 33.5905 31.7129 33.8304 32.3165 33.8304C32.822 33.8297 33.3128 33.6608 33.7116 33.3508C34.1104 33.0404 34.3946 32.606 34.5196 32.1163H47.1169V30.9917H34.5206C34.4171 30.5878 34.2051 30.2203 33.9072 29.9289C33.6094 29.6374 33.2372 29.4334 32.8316 29.3385V16.5371H31.8816C31.8543 16.5371 31.8285 16.5307 31.8011 16.5292L31.8013 16.5289Z" fill="white"/>
<path fill-rule="evenodd" clip-rule="evenodd" d="M17.9568 8C13.2764 8 9.47119 11.8056 9.47119 16.4856C9.47119 21.1661 13.2764 24.9717 17.9568 24.9717C22.6373 24.9717 26.4425 21.1661 26.4425 16.4856C26.4425 11.8056 22.6373 8 17.9568 8ZM17.9568 9.03833C22.076 9.03833 25.4045 12.3664 25.4045 16.4856C25.4045 20.6052 22.076 23.9333 17.9568 23.9333C13.8376 23.9333 10.5095 20.6052 10.5095 16.4856C10.5095 12.3664 13.8376 9.03833 17.9568 9.03833ZM17.9568 9.41523C16.0817 9.41523 14.2832 10.16 12.957 11.4862C11.6313 12.812 10.8861 14.6106 10.8861 16.4856C10.8861 18.3611 11.6312 20.1597 12.957 21.4854C14.2832 22.8116 16.0818 23.5564 17.9568 23.5564C19.8324 23.5564 21.6305 22.8116 22.9566 21.4854C24.2828 20.1597 25.0276 18.361 25.0276 16.4856C25.0276 14.6105 24.2828 12.812 22.9566 11.4862C21.6305 10.1601 19.8323 9.41523 17.9568 9.41523ZM16.5427 11.6557H19.3714V18.2864H16.5427V11.6557ZM16.5427 19.209H19.3714V21.3166H16.5427V19.209Z" fill="white"/>
</svg>
