<svg width="64" height="64" viewBox="0 0 64 64" fill="none" xmlns="http://www.w3.org/2000/svg">
<path d="M64 31.999C64 49.672 49.6721 63.9972 31.9991 63.9972C14.327 63.9972 0 49.672 0 31.999C0 14.326 14.327 -0.00012207 31.9991 -0.00012207C49.6721 -0.00012207 64 14.326 64 31.999Z" fill="#FF3CB1"/>
<path d="M26.0134 37.1493H37.4564V38.2936H26.0134V37.1493Z" fill="white"/>
<path d="M43.2611 36.5928L48.7824 30.4243C49.4232 29.7068 49.6342 28.7027 49.3366 27.7881C49.0391 26.8734 48.2777 26.1858 47.3375 25.9825L39.2469 24.237C38.8199 24.1468 38.4508 23.8796 38.2316 23.5021L34.067 16.3454C33.8325 15.9346 33.493 15.5934 33.0833 15.3569C32.6736 15.1206 32.2085 14.9972 31.7355 15C31.2627 14.9972 30.7976 15.1203 30.3882 15.3566C29.9785 15.5929 29.639 15.9339 29.4045 16.3446L25.2383 23.5033C25.0186 23.8806 24.6495 24.1472 24.2225 24.2372L16.132 25.9823C15.1915 26.1853 14.4298 26.8732 14.1325 27.7883C13.8349 28.7033 14.0464 29.7076 14.6878 30.4248L20.2091 36.5925C20.5018 36.9184 20.6433 37.3532 20.5981 37.7889L19.757 46.022V46.0217C19.6587 46.9791 20.0775 47.9163 20.8561 48.4815C21.6346 49.047 22.6553 49.1553 23.535 48.7658L29.1906 46.2664C30.812 45.5545 32.6577 45.5545 34.2791 46.2664L39.938 48.7667C40.2831 48.9197 40.6563 48.9992 41.0336 48.9999C41.7965 48.9964 42.5222 48.671 43.0325 48.1039C43.5426 47.5371 43.7898 46.7811 43.7134 46.0222L42.8713 37.7872C42.8269 37.3519 42.9684 36.9182 43.2608 36.5928L43.2611 36.5928ZM23.1528 29.1391C23.1528 28.8232 23.409 28.567 23.725 28.567H29.4465C29.7624 28.567 30.0186 28.8232 30.0186 29.1391C30.0186 29.4554 29.7624 29.7113 29.4465 29.7113H23.725C23.409 29.7113 23.1528 29.4554 23.1528 29.1391ZM38.6009 38.2935C38.6006 38.597 38.4798 38.8879 38.2652 39.1025C38.0507 39.317 37.76 39.4376 37.4566 39.4378H26.0136C25.7101 39.4376 25.4192 39.317 25.2047 39.1025C24.9901 38.8879 24.8695 38.597 24.8693 38.2935V37.1492C24.8695 36.846 24.9901 36.5551 25.2047 36.3406C25.4192 36.126 25.7101 36.0055 26.0136 36.0049H37.4566C37.76 36.0055 38.0507 36.126 38.2652 36.3406C38.4798 36.5551 38.6006 36.8461 38.6009 37.1492V38.2935ZM39.7452 29.7113H34.0237C33.7077 29.7113 33.4515 29.4554 33.4515 29.1391C33.4515 28.8232 33.7077 28.567 34.0237 28.567H39.7452C40.0611 28.567 40.3173 28.8232 40.3173 29.1391C40.3173 29.4554 40.0611 29.7113 39.7452 29.7113Z" fill="white"/>
</svg>
