<svg width="64" height="64" viewBox="0 0 64 64" fill="none" xmlns="http://www.w3.org/2000/svg">
<path d="M64 32C64 49.6743 49.6726 64 32 64C14.3248 64 0 49.6743 0 32C0 14.3274 14.3248 0 32 0C49.6726 0 64 14.3274 64 32Z" fill="#F6B354"/>
<path d="M18.4283 19C12.8036 19 7.87988 22.7786 6.42455 28.2114C4.969 33.6442 7.34307 39.3779 12.2139 42.1901C17.0848 45.0021 23.2375 44.1909 27.2142 40.2141H32.7855C36.7628 44.1913 42.9155 45.0026 47.7859 42.1901C52.6568 39.378 55.0314 33.6443 53.5752 28.2114C52.1201 22.7781 47.1958 19 41.5715 19H18.4283ZM16.6967 24.0247H19.2496C19.8744 24.0247 20.3785 24.5288 20.3785 25.1536V29.0205H24.2453C24.8702 29.0205 25.3742 29.5245 25.3742 30.1494V32.7022C25.3742 33.3271 24.8702 33.8312 24.2453 33.8312H20.3785V37.698C20.3785 38.3229 19.8744 38.8269 19.2496 38.8269H16.6967C16.0719 38.8269 15.5678 38.3229 15.5678 37.698V33.8312H11.701C11.0761 33.8312 10.572 33.3271 10.572 32.7022V30.1494C10.572 29.5245 11.0761 29.0205 11.701 29.0205H15.5678V25.1536C15.5678 24.5288 16.0719 24.0247 16.6967 24.0247ZM44.8024 25.5052V25.5047C45.5879 25.5047 46.3408 25.8169 46.896 26.3721C47.4511 26.9273 47.7629 27.6802 47.7629 28.4652C47.7629 29.2507 47.4511 30.0036 46.896 30.5588C46.3408 31.114 45.5879 31.4257 44.8024 31.4257C44.0174 31.4257 43.2645 31.114 42.7093 30.5588C42.1541 30.0036 41.8419 29.2507 41.8419 28.4652C41.8419 27.6802 42.1541 26.9273 42.7093 26.3721C43.2645 25.8169 44.0174 25.5047 44.8024 25.5047V25.5052ZM38.8814 31.4262V31.4257C39.6664 31.4257 40.4197 31.7379 40.9749 32.2931C41.5301 32.8483 41.8419 33.6012 41.8419 34.3862C41.8419 35.1717 41.5301 35.9246 40.9749 36.4798C40.4197 37.035 39.6664 37.3472 38.8814 37.3472C38.0963 37.3472 37.3435 37.035 36.7883 36.4798C36.2326 35.9246 35.9209 35.1717 35.9209 34.3862C35.9209 33.6012 36.2326 32.8483 36.7883 32.2931C37.3435 31.7379 38.0964 31.4257 38.8814 31.4257V31.4262Z" fill="white"/>
</svg>
