<svg width="64" height="64" viewBox="0 0 64 64" fill="none" xmlns="http://www.w3.org/2000/svg">
<path d="M64 32C64 49.6743 49.6726 64 32 64C14.3248 64 0 49.6743 0 32C0 14.3274 14.3248 0 32 0C49.6726 0 64 14.3274 64 32Z" fill="#F6B354"/>
<path d="M26.3811 21.8208C26.0065 21.8208 25.7026 22.1246 25.7026 22.4993C25.7026 22.874 26.0065 23.1778 26.3811 23.1778H27.0597V22.4993C27.0594 22.1246 26.7558 21.8211 26.3811 21.8208Z" fill="white"/>
<path d="M30.4522 18.4282C30.0775 18.4282 29.7737 18.732 29.7737 19.1067C29.7737 19.4814 30.0775 19.7852 30.4522 19.7852H31.1307V19.1067C31.1304 18.732 30.8269 18.4285 30.4522 18.4282Z" fill="white"/>
<path d="M36.5589 19.1067C36.5589 18.732 36.2551 18.4282 35.8804 18.4282C35.5057 18.4282 35.2019 18.732 35.2019 19.1067V19.7852H35.8804C36.2551 19.7849 36.5586 19.4814 36.5589 19.1067Z" fill="white"/>
<path d="M39.9514 27.9274C39.9514 28.2018 40.1168 28.4493 40.3703 28.5541C40.6239 28.6592 40.9156 28.6014 41.1097 28.4072C41.3039 28.2131 41.3618 27.9214 41.2566 27.6678C41.1518 27.4143 40.9044 27.2489 40.6299 27.2489H39.9514V27.9274Z" fill="white"/>
<path d="M33.5052 13.0002C25.4616 13.0002 18.9176 19.5445 18.9176 27.5878V30.9464C18.9173 31.3068 18.8255 31.6609 18.6508 31.9759L16 36.7476H18.2391C18.5989 36.7479 18.9436 36.8912 19.1981 37.1456C19.4525 37.4001 19.5958 37.7448 19.5961 38.1046V43.872C19.5967 44.5017 19.8472 45.1051 20.2925 45.5504C20.7378 45.9957 21.3411 46.2462 21.9709 46.2468H26.2117C26.7963 46.2474 27.357 46.48 27.7701 46.8935C28.1836 47.3067 28.4162 47.8674 28.4168 48.452V50.9964H44.4809L43.8675 48.8496C43.5207 47.6359 43.3447 46.38 43.3447 45.1178V44.5762C43.3435 41.9928 44.0805 39.4629 45.4684 37.2837C47.1847 34.5894 48.0955 31.4609 48.094 28.2661V27.5876C48.094 19.544 41.5496 13 33.5064 13L33.5052 13.0002ZM43.8977 37.3343L43.6548 37.716C43.1205 38.5626 42.2205 39.1102 41.2231 39.196C41.1246 39.2048 41.0265 39.2093 40.9289 39.2093C40.0308 39.2105 39.1739 38.834 38.5672 38.1722L35.1274 34.4455C33.6329 32.8316 31.6455 31.7581 29.4764 31.3928L22.5144 30.2323C21.8877 30.1297 21.3179 29.8071 20.9074 29.3224C20.497 28.8381 20.2722 28.2232 20.274 27.588C20.274 20.2925 26.2095 14.3574 33.5046 14.3574C40.7998 14.3574 46.7352 20.2929 46.7352 27.588C46.7367 31.0408 45.7523 34.4222 43.897 37.3345L43.8977 37.3343Z" fill="white"/>
<path d="M39.9514 22.4993V23.1778H40.6299C40.9044 23.1778 41.1518 23.0124 41.2566 22.7589C41.3618 22.5054 41.3039 22.2137 41.1097 22.0195C40.9156 21.8253 40.6239 21.7675 40.3703 21.8726C40.1168 21.9774 39.9514 22.2249 39.9514 22.4993Z" fill="white"/>
<path d="M33.5052 15.7142C26.9575 15.7142 21.6316 21.0405 21.6316 27.5877C21.6307 27.9013 21.7416 28.2051 21.9442 28.4444C22.1468 28.684 22.4282 28.8433 22.7378 28.8939L29.6998 30.0543C32.1664 30.4693 34.4257 31.6898 36.1253 33.5248L39.5651 37.2515C39.958 37.677 40.526 37.896 41.1026 37.8442C41.6794 37.7927 42.1995 37.4762 42.5105 36.9876L42.7535 36.6059C44.4698 33.9113 45.3809 30.7825 45.3793 27.5876C45.3793 21.0399 40.053 15.714 33.5058 15.714L33.5052 15.7142ZM42.6647 22.4993C42.6641 23.0391 42.4493 23.5565 42.0677 23.9378C41.6863 24.3195 41.1689 24.5342 40.6291 24.5349H39.9506V25.8919H40.6291C41.1689 25.8919 41.6869 26.1063 42.0685 26.488C42.4501 26.8697 42.6646 27.3877 42.6646 27.9274C42.6646 28.4671 42.4502 28.9852 42.0685 29.3667C41.6868 29.7483 41.1688 29.9629 40.6291 29.9629C40.0894 29.9629 39.5714 29.7484 39.1898 29.3667C38.8082 28.9851 38.5936 28.4671 38.5936 27.9274V27.2489H34.5226C34.1479 27.2489 33.8441 27.5527 33.8441 27.9274C33.8441 28.3021 34.1479 28.6059 34.5226 28.6059H35.2011C35.7409 28.6065 36.2582 28.8212 36.6396 29.2029C37.0213 29.5843 37.236 30.1016 37.2366 30.6414C37.2369 31.0161 37.5404 31.3196 37.9151 31.3199H39.2722C39.8119 31.3206 40.3293 31.5353 40.7107 31.917C41.0923 32.2983 41.3071 32.8157 41.3077 33.3555V35.391H39.9507V33.3555C39.9504 32.9808 39.6469 32.6773 39.2722 32.677H37.9152C37.3754 32.6764 36.858 32.4616 36.4766 32.08C36.095 31.6986 35.8802 31.1812 35.8796 30.6414C35.8793 30.2667 35.5758 29.9632 35.2011 29.9629H34.5226C33.7953 29.9629 33.1235 29.5749 32.7597 28.9452C32.3962 28.3154 32.3962 27.5394 32.7597 26.9096C33.1235 26.2799 33.7953 25.8918 34.5226 25.8918H38.5937V24.5348H35.8796C35.3398 24.5342 34.8224 24.3195 34.4411 23.9378C34.0594 23.5564 33.8447 23.0391 33.8441 22.4993V21.1423H32.487V22.4993C32.4864 23.0391 32.2717 23.5564 31.89 23.9378C31.5086 24.3195 30.9913 24.5342 30.4515 24.5348H28.4159V25.8918C28.4162 26.2665 28.7198 26.5701 29.0945 26.5704H31.13V27.9274H29.0945C28.5547 27.9268 28.0373 27.712 27.6559 27.3304C27.2743 26.949 27.0595 26.4316 27.0589 25.8918V24.5348H26.3804C25.8406 24.5348 25.3226 24.3204 24.941 23.9387C24.5594 23.557 24.3449 23.039 24.3449 22.4993C24.3449 21.9596 24.5594 21.4415 24.941 21.0599C25.3227 20.6783 25.8407 20.4638 26.3804 20.4638C26.9201 20.4638 27.4382 20.6783 27.8198 21.0599C28.2014 21.4416 28.4159 21.9596 28.4159 22.4993V23.1778H30.4514C30.8261 23.1775 31.1296 22.874 31.1299 22.4993V21.1423H30.4514C29.9116 21.1423 29.3936 20.9278 29.0121 20.5462C28.6305 20.1645 28.4159 19.6465 28.4159 19.1068C28.4159 18.5671 28.6304 18.049 29.0121 17.6674C29.3937 17.2858 29.9117 17.0713 30.4514 17.0713C30.9911 17.0713 31.5092 17.2858 31.8908 17.6674C32.2724 18.0491 32.4869 18.5671 32.4869 19.1068V19.7853H33.8439V19.1068C33.8439 18.567 34.0584 18.049 34.4401 17.6674C34.8217 17.2858 35.3397 17.0713 35.8794 17.0713C36.4191 17.0713 36.9372 17.2858 37.3188 17.6674C37.7004 18.0491 37.9149 18.5671 37.9149 19.1068C37.9149 19.6465 37.7005 20.1646 37.3188 20.5462C36.9372 20.9278 36.4191 21.1423 35.8794 21.1423H35.2009V22.4993C35.2012 22.874 35.5047 23.1775 35.8794 23.1778H38.5935V22.4993C38.5935 21.772 38.9815 21.1002 39.6113 20.7364C40.241 20.3729 41.0171 20.3729 41.6468 20.7364C42.2765 21.1002 42.6646 21.772 42.6646 22.4993L42.6647 22.4993Z" fill="white"/>
</svg>
