<svg width="64" height="64" viewBox="0 0 64 64" fill="none" xmlns="http://www.w3.org/2000/svg">
<path d="M64 31.9991C64 49.6721 49.6721 63.9973 31.9991 63.9973C14.327 63.9973 0 49.6721 0 31.9991C0 14.3261 14.327 0 31.9991 0C49.6721 0 64 14.3261 64 31.9991Z" fill="#6288E9"/>
<path d="M44.1992 17.6427L42.9289 14.9365L41.6586 17.6427L38.8179 18.0766L40.8734 20.1838L40.3883 23.1585L42.9289 21.7537L45.4695 23.1585L44.9844 20.1838L47.0399 18.0766L44.1992 17.6427Z" fill="white"/>
<path d="M42.3413 12H43.5159V13.7619H42.3413V12Z" fill="white"/>
<path d="M45.2776 14.9435L46.5508 13.7255L47.3628 14.5742L46.0896 15.7922L45.2776 14.9435Z" fill="white"/>
<path d="M38.4934 14.5647L39.3054 13.7159L40.5786 14.934L39.7666 15.7827L38.4934 14.5647Z" fill="white"/>
<path d="M35.0004 26.9466C35.0004 28.4062 33.8172 29.5894 32.3576 29.5894C30.8981 29.5894 29.7148 28.4062 29.7148 26.9466C29.7148 25.4871 30.8981 24.3038 32.3576 24.3038C33.8172 24.3038 35.0004 25.4871 35.0004 26.9466Z" fill="white"/>
<path d="M42.5667 24.9532C42.368 24.836 42.1415 24.7733 41.9108 24.772C41.6798 24.7707 41.4527 24.8305 41.2524 24.9456L25.6716 33.7743C25.4728 33.8876 25.3074 34.0512 25.1923 34.2488C25.0772 34.4463 25.0164 34.671 25.0161 34.8996C25.0153 35.2066 25.1239 35.5036 25.3223 35.7378C25.5208 35.9719 25.7961 36.1279 26.0989 36.1774C26.4017 36.2272 26.7124 36.1675 26.9754 36.0089L30.8379 33.6919L30.3145 39.4473L26.0997 42.6087V42.609C25.788 42.8436 25.6042 43.2112 25.6034 43.6013C25.6026 43.9091 25.7167 44.2062 25.923 44.4348C26.1293 44.6632 26.4135 44.8066 26.7198 44.837C27.026 44.8677 27.3327 44.783 27.5802 44.5997L38.9937 36.1596L38.6531 38.2046C38.5876 38.6275 38.7528 39.0533 39.0862 39.3215C39.42 39.5897 39.8712 39.6595 40.2703 39.5048C40.6693 39.3499 40.9556 38.9941 41.0209 38.5709L41.4533 35.5469V35.5472C41.5298 35.011 41.3914 34.4662 41.0686 34.0315C40.7459 33.5968 40.2646 33.3068 39.7292 33.225C39.1938 33.1432 38.6477 33.2759 38.2098 33.5944L35.659 35.4506L36.1564 30.9731L42.5677 27.2333H42.568C42.9718 26.9961 43.2203 26.5635 43.2222 26.0952C43.2237 25.864 43.164 25.6364 43.0489 25.4358C42.9338 25.235 42.7673 25.0688 42.5667 24.9534L42.5667 24.9532Z" fill="white"/>
<path d="M20.8467 47.0606L23.1961 45.2993L23.9003 46.2387L21.5509 48L20.8467 47.0606Z" fill="white"/>
<path d="M17.3499 44.5953L25.5719 39.1141L26.2234 40.0915L18.0014 45.5727L17.3499 44.5953Z" fill="white"/>
<path d="M15 46.1612L16.1748 45.3781L16.8264 46.3554L15.6515 47.1386L15 46.1612Z" fill="white"/>
<path d="M16.218 40.9259L21.4548 37.3545L22.1165 38.3248L16.8798 41.8963L16.218 40.9259Z" fill="white"/>
</svg>
