<svg width="64" height="64" viewBox="0 0 64 64" fill="none" xmlns="http://www.w3.org/2000/svg">
<path d="M64 31.9991C64 49.6721 49.6739 63.9982 31.9982 63.9982C14.327 63.9982 0 49.6721 0 31.9991C0 14.327 14.327 0 31.9982 0C49.6739 0 64 14.327 64 31.9991Z" fill="#EC5B60"/>
<path d="M20.6297 32.036C21.1278 33.5066 22.6162 37.7488 22.6162 37.7488C23.3967 39.9783 23.793 42.3241 23.7881 44.6864V49.3271C23.7881 49.6378 23.9115 49.936 24.1312 50.1557C24.351 50.3755 24.6492 50.4989 24.9599 50.4989H37.4348C37.7455 50.4989 38.0434 50.3755 38.2632 50.1557C38.4832 49.936 38.6066 49.6378 38.6066 49.3271V43.6435H41.6185H41.6182C42.6078 43.6419 43.5562 43.2482 44.2558 42.5484C44.9555 41.849 45.3492 40.9005 45.3508 39.9109V36.8934H47.8117C48.089 36.8973 48.3589 36.8026 48.5729 36.6263C48.7871 36.45 48.9318 36.2033 48.9812 35.9305C49.0307 35.6574 48.9817 35.3759 48.8428 35.1355L45.3272 28.6552V28.4676C45.3165 25.5405 44.1485 22.7367 42.0784 20.6676C40.008 18.5985 37.2035 17.4319 34.2763 17.4227H33.3388C31.5967 14.8377 28.7515 13.2102 25.6406 13.019C22.5293 12.8275 19.5063 14.0943 17.4609 16.4465C15.4153 18.7986 14.5801 21.9682 15.2011 25.0226C15.8221 28.0771 17.8286 30.6691 20.6302 32.0358L20.6297 32.036ZM23.8524 17.733V17.7327C23.8524 17.3142 24.0758 16.9274 24.4383 16.7178C24.8012 16.5086 25.2477 16.5086 25.6102 16.7178C25.973 16.9274 26.1962 17.3142 26.1962 17.7327V22.4553L29.0965 24.7171C29.3526 24.9191 29.513 25.2186 29.5389 25.5438C29.5648 25.8689 29.4541 26.1901 29.2333 26.4302C29.0128 26.6701 28.7021 26.8074 28.3759 26.809C28.1151 26.8095 27.8613 26.7229 27.6552 26.5628L24.3035 23.9554C24.0184 23.733 23.8518 23.3912 23.8523 23.0297L23.8524 17.733ZM25.0243 33.0612C28.266 33.0688 31.3108 31.5058 33.194 28.8673C35.0771 26.2285 35.5657 22.841 34.5047 19.7782C36.7778 19.8391 38.9374 20.784 40.525 22.412C42.1125 24.0401 43.0029 26.223 43.0066 28.4969V28.9774C43.0066 29.1718 43.055 29.363 43.1473 29.534L45.8544 34.5496H44.1785C43.8678 34.5496 43.5696 34.673 43.3498 34.8927C43.1301 35.1127 43.0066 35.4107 43.0066 35.7214V39.9109C43.0066 40.2792 42.8604 40.6323 42.5999 40.8928C42.3394 41.1534 41.9862 41.2996 41.6179 41.2996H37.4344C37.1234 41.2996 36.8255 41.4231 36.6058 41.6428C36.386 41.8625 36.2626 42.1607 36.2626 42.4715V48.1551H26.1315V44.6863C26.1326 42.0608 25.6907 39.4539 24.8249 36.9753C24.8249 36.9753 24.0396 34.7077 23.4186 32.9205C23.9489 33.0118 24.4859 33.0586 25.024 33.0613L25.0243 33.0612Z" fill="white"/>
</svg>
