<svg width="64" height="65" viewBox="0 0 64 65" fill="none" xmlns="http://www.w3.org/2000/svg">
<path d="M64 32C64 49.6735 49.6743 64.0018 32.0009 64.0018C14.3274 64.0018 0 49.6735 0 32C0 14.3265 14.3274 0 32.0009 0C49.6743 0 64 14.3265 64 32Z" fill="#FE753E"/>
<path d="M20.4283 20C14.8036 20 9.87988 23.7786 8.42455 29.2114C6.969 34.6442 9.34307 40.3779 14.2139 43.1901C19.0848 46.0021 25.2375 45.1909 29.2142 41.2141H34.7855C38.7628 45.1913 44.9155 46.0026 49.7859 43.1901C54.6568 40.378 57.0314 34.6443 55.5752 29.2114C54.1201 23.7781 49.1958 20 43.5715 20H20.4283ZM18.6967 25.0247H21.2496C21.8744 25.0247 22.3785 25.5288 22.3785 26.1536V30.0205H26.2453C26.8702 30.0205 27.3742 30.5245 27.3742 31.1494V33.7022C27.3742 34.3271 26.8702 34.8312 26.2453 34.8312H22.3785V38.698C22.3785 39.3229 21.8744 39.8269 21.2496 39.8269H18.6967C18.0719 39.8269 17.5678 39.3229 17.5678 38.698V34.8312H13.701C13.0761 34.8312 12.572 34.3271 12.572 33.7022V31.1494C12.572 30.5245 13.0761 30.0205 13.701 30.0205H17.5678V26.1536C17.5678 25.5288 18.0719 25.0247 18.6967 25.0247ZM46.8024 26.5052V26.5047C47.5879 26.5047 48.3408 26.8169 48.896 27.3721C49.4511 27.9273 49.7629 28.6802 49.7629 29.4652C49.7629 30.2507 49.4511 31.0036 48.896 31.5588C48.3408 32.114 47.5879 32.4257 46.8024 32.4257C46.0174 32.4257 45.2645 32.114 44.7093 31.5588C44.1541 31.0036 43.8419 30.2507 43.8419 29.4652C43.8419 28.6802 44.1541 27.9273 44.7093 27.3721C45.2645 26.8169 46.0174 26.5047 46.8024 26.5047V26.5052ZM40.8814 32.4262V32.4257C41.6664 32.4257 42.4197 32.7379 42.9749 33.2931C43.5301 33.8483 43.8419 34.6012 43.8419 35.3862C43.8419 36.1717 43.5301 36.9246 42.9749 37.4798C42.4197 38.035 41.6664 38.3472 40.8814 38.3472C40.0963 38.3472 39.3435 38.035 38.7883 37.4798C38.2326 36.9246 37.9209 36.1717 37.9209 35.3862C37.9209 34.6012 38.2326 33.8483 38.7883 33.2931C39.3435 32.7379 40.0964 32.4257 40.8814 32.4257V32.4262Z" fill="white"/>
</svg>
