<svg width="64" height="64" viewBox="0 0 64 64" fill="none" xmlns="http://www.w3.org/2000/svg">
<path d="M64 31.9991C64 49.6721 49.6721 63.9973 31.9991 63.9973C14.327 63.9973 0 49.6721 0 31.9991C0 14.3261 14.327 0 31.9991 0C49.6721 0 64 14.3261 64 31.9991Z" fill="#6288E9"/>
<path d="M49.2163 23.2479H43.4572L43.4574 17.1518C43.4574 16.6709 43.0712 16.2822 42.5934 16.2822H32.2734C31.865 14.4047 29.5028 13 26.5333 13C23.2674 13 20.7082 14.692 20.7082 16.8518C20.7082 18.8769 22.9664 20.472 25.9375 20.6672V22.775L21.8167 26.9236H18.002C17.5241 26.9236 17.1379 27.3123 17.1379 27.7932V36.4254L13.6307 36.4257C13.2822 36.4257 13 36.7097 13 37.0604V41.7806C13 42.1313 13.2822 42.4153 13.6307 42.4153H17.1379V45.2896C14.7931 45.4961 13.041 46.6609 13.041 48.1225C13.041 49.7366 15.1635 51 17.8726 51C20.5833 51 22.7059 49.7366 22.7059 48.1225C22.7059 46.6038 20.8136 45.407 18.3283 45.2737V42.4153H21.8907C22.2392 42.4153 22.5214 42.1313 22.5214 41.7806V40.0206H29.1744V44.0202C29.1744 44.4567 29.526 44.8106 29.9598 44.8106H47.4307C47.8645 44.8106 48.2161 44.4567 48.2161 44.0202V34.8234C48.2161 34.3868 47.8645 34.0329 47.4307 34.0329L29.9598 34.0327C29.526 34.0327 29.1744 34.3866 29.1744 34.8231V38.8227L22.5214 38.8224V37.0624C22.5214 36.7117 22.2392 36.4277 21.8907 36.4277H18.3283V28.1206H21.9773L26.093 32.2628C26.2144 32.385 26.3736 32.4469 26.5331 32.4469C26.6923 32.4469 26.8517 32.385 26.9731 32.2628L31.1694 28.0395H35.7188V30.8423C35.7188 31.2789 36.0705 31.6328 36.5042 31.6328H49.2146C49.6484 31.6328 50 31.2789 50 30.8423L49.9997 24.0405C50.0013 23.6039 49.6497 23.2484 49.2159 23.2484L49.2163 23.2479ZM31.5547 36.3973H45.46C45.8037 36.3973 46.0828 36.6781 46.0828 37.024C46.0828 37.37 45.8037 37.6508 45.46 37.6508H31.5547C31.211 37.6508 30.932 37.37 30.932 37.024C30.932 36.6781 31.211 36.3973 31.5547 36.3973ZM31.5547 38.7923H43.5569C43.9006 38.7923 44.1796 39.0731 44.1796 39.419C44.1796 39.765 43.9006 40.0458 43.5569 40.0458H31.5547C31.211 40.0458 30.932 39.765 30.932 39.419C30.932 39.0747 31.211 38.7923 31.5547 38.7923ZM31.5547 41.1888H40.5447C40.8884 41.1888 41.1674 41.4697 41.1674 41.8156C41.1674 42.1615 40.8884 42.4424 40.5447 42.4424H31.5547C31.211 42.4424 30.932 42.1615 30.932 41.8156C30.932 41.4697 31.211 41.1888 31.5547 41.1888ZM18.4976 47.4943C18.8414 47.4943 19.1204 47.7752 19.1204 48.1211C19.1204 48.467 18.8414 48.7479 18.4976 48.7479L17.7186 48.7482H16.9696C16.6259 48.7482 16.3469 48.4673 16.3469 48.1214C16.3469 47.7754 16.6259 47.4946 16.9696 47.4946L17.7186 47.4943H18.4976ZM19.2751 38.7921C19.6188 38.7921 19.8979 39.0729 19.8979 39.4188C19.8979 39.7648 19.6188 40.0456 19.2751 40.0456L16.1905 40.0459C15.8468 40.0459 15.5678 39.765 15.5678 39.4191C15.5678 39.0732 15.8468 38.7923 16.1905 38.7923L19.2751 38.7921ZM24.9914 17.4792C24.6477 17.4792 24.3687 17.1983 24.3687 16.8524C24.3687 16.5064 24.6477 16.2256 24.9914 16.2256H28.076C28.4197 16.2256 28.6988 16.5064 28.6988 16.8524C28.6988 17.1983 28.4197 17.4792 28.076 17.4792H24.9914ZM35.7196 24.0403V26.8431H31.1702L27.1284 22.7753V20.6675C29.7839 20.4945 31.8528 19.2011 32.2644 17.4807H42.2654V23.2498H36.5063C36.0728 23.2482 35.7196 23.6037 35.7196 24.0402L35.7196 24.0403ZM44.5082 29.2665H38.0994C37.7556 29.2665 37.4766 28.9857 37.4766 28.6398C37.4766 28.2938 37.7556 28.013 38.0994 28.013H44.5082C44.8519 28.013 45.1309 28.2938 45.1309 28.6398C45.1312 28.9857 44.8519 29.2665 44.5082 29.2665ZM47.6225 26.8715H38.1007C37.757 26.8715 37.478 26.5907 37.478 26.2448C37.478 25.8988 37.757 25.618 38.1007 25.618H47.6225C47.9663 25.618 48.2453 25.8988 48.2453 26.2448C48.244 26.5891 47.9649 26.8715 47.6225 26.8715Z" fill="white"/>
</svg>
