<svg width="64" height="65" viewBox="0 0 64 65" fill="none" xmlns="http://www.w3.org/2000/svg">
<path d="M64 32C64 49.6735 49.6743 64.0018 32.0009 64.0018C14.3274 64.0018 0 49.6735 0 32C0 14.3265 14.3274 0 32.0009 0C49.6743 0 64 14.3265 64 32Z" fill="#FE753E"/>
<path d="M47.0843 18.4988C39.7272 8.99992 29.216 12.512 27.4137 13.2094C26.5373 12.839 23.6734 11.8083 20.7232 12.9749C18.3532 13.9131 16.551 16.0303 15.3657 19.258C11.8538 28.868 13.2736 40.4778 13.3351 40.9469C13.3414 41.0581 13.619 43.5887 17.532 43.6007C20.0008 48.9335 25.4199 52.6491 31.6908 52.6491C38.0236 52.6491 43.4796 48.8656 45.9176 43.4464C48.3741 43.3292 49.8122 41.6996 49.88 38.8978C49.9108 37.7499 50.0343 36.5769 50.1516 35.4353L50.1763 35.2132C51.3001 24.1774 47.2635 18.7274 47.0845 18.4991L47.0843 18.4988ZM31.691 51.4148C23.7721 51.4148 17.3284 44.9899 17.3284 37.0955C17.3284 32.7072 19.1677 28.7446 22.3897 26.1646L25.9634 27.4237C26.1608 27.4915 26.3832 27.4545 26.5499 27.3252C26.7165 27.1893 26.803 26.9795 26.7783 26.7695L26.2599 22.2452L27.8153 24.5781C27.9265 24.7511 28.1176 24.8497 28.3277 24.8497H36.5675C38.5547 24.8497 40.4497 25.5968 41.8074 26.9234C44.5418 29.6331 46.0538 33.2435 46.0538 37.0951C46.0535 44.9892 39.6099 51.4152 31.6912 51.4152L31.691 51.4148Z" fill="white"/>
<path d="M37.9805 31.5652C37.2397 31.5716 36.561 31.9296 36.061 32.5715C35.5918 33.1701 35.3389 33.9539 35.3513 34.7749C35.3576 35.3056 35.4809 35.7935 35.6786 36.2314C35.6909 36.2685 35.7093 36.3053 35.734 36.3423C36.1969 37.2868 37.0486 37.9287 38.0302 37.9224H38.0549C39.0485 37.9161 39.9002 37.2434 40.3448 36.2745C40.3632 36.2438 40.3755 36.2128 40.3879 36.1817C40.5792 35.7375 40.6901 35.2435 40.6841 34.7128C40.6591 32.9603 39.437 31.5529 37.9805 31.5653L37.9805 31.5652ZM38.0422 36.6883H38.0299C37.6164 36.6883 37.246 36.4351 36.9744 36.0463C37.24 35.6268 37.6224 35.3673 38.0299 35.3613H38.0359C38.437 35.3613 38.8198 35.6142 39.0913 36.0216C38.8322 36.4227 38.4557 36.6883 38.0422 36.6883H38.0422Z" fill="white"/>
<path d="M25.3468 31.7195H25.3161C24.5753 31.7258 23.8966 32.0838 23.3966 32.7258C22.9274 33.3243 22.6806 34.1082 22.6869 34.9355C22.6929 35.4541 22.8165 35.9418 23.0139 36.3737C23.0262 36.4294 23.0509 36.4722 23.0817 36.5216C23.5509 37.4538 24.3963 38.0833 25.3655 38.0833H25.3963C26.3839 38.071 27.2295 37.4043 27.6801 36.4418C27.6988 36.4047 27.7172 36.3676 27.7295 36.3306C27.9146 35.8864 28.0258 35.3984 28.0195 34.868C28.0008 33.127 26.8034 31.7195 25.3468 31.7195L25.3468 31.7195ZM25.3776 36.8485H25.3652C24.9517 36.8485 24.5813 36.5893 24.3098 36.1942C24.5753 35.7808 24.9577 35.5213 25.3592 35.5213H25.3715C25.7727 35.5213 26.1554 35.7684 26.427 36.1756C26.1675 36.577 25.7911 36.8425 25.3776 36.8485Z" fill="white"/>
<path d="M35.2391 30.0469C34.9643 30.2485 34.9052 30.6346 35.1065 30.9095C35.3084 31.184 35.6936 31.244 35.9697 31.0421C38.0498 29.5168 40.7741 31.7473 40.8007 31.7702C40.9164 31.866 41.0568 31.9131 41.1961 31.9131C41.3727 31.9131 41.5481 31.8377 41.6698 31.6919C41.888 31.4306 41.8543 31.0424 41.5933 30.8236C41.4523 30.7051 38.1028 27.947 35.2392 30.047L35.2391 30.0469Z" fill="white"/>
<path d="M27.4022 31.0422C27.6783 31.2442 28.0634 31.1842 28.2654 30.9096C28.4667 30.6348 28.4076 30.2487 28.1328 30.0471C25.2703 27.9477 21.9203 30.7053 21.7792 30.8237C21.5182 31.0425 21.4844 31.4307 21.7026 31.6919C21.8244 31.8378 21.9998 31.9132 22.1764 31.9132C22.3156 31.9132 22.4561 31.8661 22.5718 31.77C22.5977 31.7471 25.3252 29.5176 27.4022 31.0422L27.4022 31.0422Z" fill="white"/>
<path d="M35.4869 47.798C34.6967 48.7051 33.5487 49.2054 32.2528 49.2054C29.6975 49.2054 27.3211 47.1808 26.9695 44.6936C26.7905 43.4591 27.1175 42.2986 27.889 41.4098C28.6728 40.5027 29.8208 40.0024 31.117 40.0024C33.6784 40.0024 36.0484 42.0271 36.4064 44.5143C36.5794 45.7487 36.2524 46.9093 35.4869 47.798H35.4869Z" fill="white"/>
</svg>
