<svg width="30" height="45" viewBox="0 0 30 45" fill="none" xmlns="http://www.w3.org/2000/svg">
<path d="M17.9566 40.2939H12.0433C11.6308 40.2939 11.3557 40.569 11.3557 40.9815C11.3557 41.394 11.6308 41.6691 12.0433 41.6691H17.9566C18.3691 41.6691 18.6442 41.394 18.6442 40.9815C18.6442 40.569 18.3691 40.2939 17.9566 40.2939Z" fill="white"/>
<path d="M16.0319 42.632H14.0379C13.6254 42.632 13.3503 42.907 13.3503 43.3195C13.3503 43.732 13.6254 44.0071 14.0379 44.0071H16.0319C16.4444 44.0071 16.7194 43.732 16.7194 43.3195C16.7194 42.9067 16.3757 42.632 16.0319 42.632Z" fill="white"/>
<path d="M8.46783 18.6347C7.71158 18.6347 7.02404 18.3596 6.40514 17.9471C5.02999 19.46 7.02401 22.2102 9.01801 20.8351C9.2244 20.6977 9.49918 20.6977 9.70558 20.7664C9.91197 20.9038 10.0494 21.1102 10.0494 21.3853C10.0494 24.3419 14.1751 23.8608 14.2438 21.5227V20.0789C13.3498 20.7665 12.3185 20.8351 11.2184 20.4227C10.8746 20.2853 10.6682 19.9415 10.806 19.5287C10.9433 19.1849 11.3561 18.9785 11.6999 19.1163C12.9376 19.5287 13.8316 18.9789 14.2441 17.8098L14.2438 7.08266C14.2438 4.40107 9.84298 4.26339 10.4619 7.90796C10.6683 9.28312 11.2872 9.90193 12.3872 9.90193C12.7997 9.90193 13.0748 10.177 13.0748 10.5895C13.0748 10.9333 12.7997 11.2771 12.3872 11.2771C10.8744 11.2771 9.56793 10.177 9.22416 8.80156C6.47385 9.48913 7.6426 13.6835 9.56795 13.6835C9.91173 13.6835 10.2555 13.9586 10.2555 14.3711C10.2555 14.7149 9.91173 15.0587 9.56795 15.0587C8.05511 15.0587 6.81764 14.0273 6.40491 12.6522C5.64865 12.9273 5.30488 13.6149 5.23583 14.2338C5.02943 15.7466 7.91742 18.1531 9.56762 16.8466C9.84271 16.5715 10.3239 16.6402 10.5303 16.9153C10.7367 17.1904 10.7367 17.6716 10.3929 17.878C9.91173 18.4282 9.15543 18.6346 8.4679 18.6346L8.46783 18.6347Z" fill="white"/>
<path d="M17.4761 16.0211C16.8573 16.0898 16.2384 16.0211 15.6882 15.6773V21.4532C15.6882 23.7911 19.8139 24.3412 19.8139 21.3159C19.8139 21.0408 19.9513 20.8347 20.1577 20.697C20.3641 20.5596 20.6389 20.5596 20.8453 20.7657C21.9453 21.5219 23.0457 21.0408 23.5956 20.2155C25.1772 17.8777 21.739 16.2275 20.914 18.8403C20.7766 19.2528 20.3638 19.3905 20.0887 19.3215C19.7449 19.1841 19.5385 18.8403 19.6075 18.4276C20.0887 16.846 21.6702 15.8147 23.3895 16.2272C24.4209 15.8147 24.6959 14.9208 24.6272 14.1645C24.3521 11.689 20.9829 12.0328 20.9829 14.3019C20.9829 14.6457 20.6392 14.9895 20.2954 14.9895C19.8829 14.9895 19.6078 14.6457 19.6078 14.3019C19.6078 13.9581 19.6765 13.6143 19.7452 13.3392C18.5075 12.583 18.2324 11.4139 18.7825 10.2448C18.9199 9.90104 19.3327 9.76365 19.6765 9.90104C20.0203 10.0384 20.1576 10.4512 20.0203 10.795C19.7452 11.3452 19.8139 11.7576 20.4327 12.1014C20.9139 11.5512 21.6018 11.1387 22.3581 11.07C23.1143 8.45716 17.9572 7.42577 17.9572 10.5198C17.9572 10.8636 17.6821 11.2074 17.2697 11.2074C16.9259 11.2074 16.5821 10.8636 16.5821 10.5198C16.5821 8.86964 17.8885 7.49449 19.4701 7.28808V7.01299C19.4701 4.40013 15.5508 4.40013 15.5508 7.01299V13.4765C15.6195 13.8203 15.8946 14.783 17.1323 14.5765C17.4761 14.5079 17.8199 14.7829 17.8886 15.1954C18.095 15.6769 17.8199 16.021 17.4761 16.021V16.0211Z" fill="white"/>
<path d="M15.0003 0C1.45462 0 -5.14684 16.6398 4.75453 25.9228C8.26134 29.2233 10.3241 33.5554 10.4618 38.0933C10.4618 38.4371 10.8056 38.7809 11.1494 38.7809H14.3124V24.1346C12.4558 25.4411 9.56781 24.8222 8.88027 22.4157C5.85492 23.3784 3.37941 19.5964 5.23602 17.19C4.13599 16.4337 3.79222 15.196 3.92959 14.0956C4.06697 12.9265 4.82353 11.7578 6.12996 11.2763C5.99258 10.5887 6.12996 9.83252 6.54244 9.14458C7.09262 8.31927 7.98623 7.70078 8.9489 7.42565C8.39903 4.12517 13.1433 2.47497 14.9999 4.95015C16.7878 2.74977 20.9819 3.71244 20.9819 7.08189V7.42567C22.7698 7.83814 24.2137 9.41964 23.8699 11.2763C25.2451 11.6888 25.9326 12.9265 26.0703 14.0956C26.2077 15.1956 25.7952 16.4334 24.7639 17.19C26.7578 19.6655 24.145 23.3784 21.1196 22.4157C20.5007 24.8222 17.6128 25.4411 15.6875 24.1347V38.712H18.8505C19.1943 38.712 19.5381 38.4369 19.5381 38.0244C19.7445 33.4862 21.7385 29.1547 25.2453 25.854C35.1467 16.6398 28.5458 1.62299e-05 14.9996 1.62299e-05L15.0003 0Z" fill="white"/>
</svg>
