<svg width="39" height="39" viewBox="0 0 39 39" fill="none" xmlns="http://www.w3.org/2000/svg">
<path d="M6.12857 38.7214C6.40714 38.8606 6.68571 38.9999 6.96429 38.9999C7.24286 38.9999 7.52143 38.8606 7.8 38.7214C8.35714 38.3035 13.9286 33.9856 13.9286 29.2499C13.9286 25.3499 10.8643 22.2856 6.96429 22.2856C3.06429 22.2856 0 25.3499 0 29.2499C0 33.9856 5.57143 38.3035 6.12857 38.7214ZM6.96429 26.4642C8.49643 26.4642 9.75 27.7178 9.75 29.2499C9.75 30.7821 8.49643 32.0356 6.96429 32.0356C5.43214 32.0356 4.17857 30.7821 4.17857 29.2499C4.17857 27.7178 5.43214 26.4642 6.96429 26.4642Z" fill="white"/>
<path d="M32.0358 25.0716H25.0715C22.7036 25.0716 20.8929 23.2609 20.8929 20.893C20.8929 18.5251 22.7036 16.7144 25.0715 16.7144H27.3001C26.4644 16.018 25.6286 15.043 24.9322 13.9287C21.1715 14.068 18.1072 17.1323 18.1072 20.893C18.1072 24.793 21.1715 27.8573 25.0715 27.8573H32.0358C34.4036 27.8573 36.2144 29.668 36.2144 32.0359C36.2144 34.4037 34.4036 36.2144 32.0358 36.2144H14.2072C13.3715 37.3287 12.5358 38.3037 11.8394 39.0001H32.0358C35.9358 39.0001 39.0001 35.9359 39.0001 32.0359C39.0001 28.1359 35.9358 25.0716 32.0358 25.0716Z" fill="white"/>
<path d="M32.0356 0C28.1356 0 25.0713 3.06429 25.0713 6.96429C25.0713 11.7 30.6427 16.0179 31.1999 16.4357C31.4784 16.575 31.757 16.7143 32.0356 16.7143C32.3141 16.7143 32.5927 16.575 32.8713 16.4357C33.4284 16.0179 38.9999 11.7 38.9999 6.96429C38.9999 3.06429 35.9356 0 32.0356 0ZM32.0356 9.75C30.5034 9.75 29.2499 8.49643 29.2499 6.96429C29.2499 5.43214 30.5034 4.17857 32.0356 4.17857C33.5677 4.17857 34.8213 5.43214 34.8213 6.96429C34.8213 8.49643 33.5677 9.75 32.0356 9.75Z" fill="white"/>
</svg>
