<svg width="46" height="34" viewBox="0 0 46 34" fill="none" xmlns="http://www.w3.org/2000/svg">
<path d="M43.9561 25.5558H42.4227V3.06686C42.4227 1.37517 41.048 0 39.3558 0H6.64459C4.95289 0 3.57773 1.37471 3.57773 3.06686V25.5558H2.0443C0.914829 25.5558 2.90271e-05 26.4706 2.90271e-05 27.5901C-0.00496235 29.2309 0.633927 30.7743 1.79403 31.9348C2.95417 33.0949 4.49253 33.7338 6.13329 33.7338H39.8667C41.5075 33.7338 43.0459 33.0949 44.206 31.9348C45.3661 30.7743 46 29.2309 46 27.5901C46 26.4706 45.0802 25.5558 43.9557 25.5558H43.9561ZM5.62264 3.06686C5.62264 2.50462 6.08255 2.04472 6.64477 2.04472H39.356C39.9182 2.04472 40.3781 2.50464 40.3781 3.06686V25.5558H30.2736C29.1798 25.5558 28.1987 26.1641 27.7077 27.1402C27.5648 27.4265 27.2835 27.6001 26.9665 27.6001L19.0292 27.6005C18.7176 27.6005 18.4313 27.4268 18.2933 27.1405C17.8028 26.1644 16.8162 25.5562 15.7224 25.5562L5.62249 25.5558L5.62264 3.06686ZM42.7595 30.4881C41.9877 31.2599 40.9605 31.6892 39.8667 31.6892H6.13329C5.03951 31.6892 4.01236 31.2599 3.24048 30.4881C2.46861 29.7165 2.04439 28.689 2.04439 27.6005H15.7221C16.0391 27.6005 16.32 27.7742 16.4633 28.0555C16.9539 29.037 17.9354 29.6449 19.0292 29.6449H26.9669C28.0607 29.6449 29.0472 29.0366 29.5378 28.0555C29.6758 27.7745 29.9621 27.6005 30.2737 27.6005H43.956C43.956 28.689 43.5317 29.7166 42.7599 30.4881H42.7595Z" fill="white"/>
<path d="M17.3783 19.4225H28.6228C29.185 19.4225 29.6449 18.9626 29.6449 18.4004V15.3335C29.6449 13.1458 28.2598 11.2806 26.3228 10.5497C26.8034 9.88012 27.0897 9.06224 27.0897 8.1781C27.0897 5.92419 25.2547 4.08911 23.0007 4.08911C20.7467 4.08911 18.9117 5.9241 18.9117 8.1781C18.9117 9.06228 19.198 9.88011 19.6783 10.5497C17.7412 11.2805 16.3562 13.1458 16.3562 15.3335V18.4004C16.3562 18.9626 16.8111 19.4225 17.3783 19.4225H17.3783ZM23.0007 6.13356C24.1251 6.13356 25.045 7.04836 25.045 8.17783C25.045 9.30228 24.1251 10.2221 23.0007 10.2221C21.8712 10.2221 20.9564 9.30228 20.9564 8.17783C20.9564 7.04873 21.8712 6.13356 23.0007 6.13356ZM18.4009 15.3336C18.4009 13.6419 19.7756 12.2667 21.4677 12.2667H24.5346C26.2263 12.2667 27.6014 13.6414 27.6014 15.3336V17.3779L18.4014 17.3782L18.4009 15.3336Z" fill="white"/>
<path d="M38.3338 22.4893C38.3338 21.9221 37.8739 21.4672 37.3117 21.4672L12.7782 21.4668C12.211 21.4668 11.7561 21.9217 11.7561 22.4889C11.7561 23.0512 12.211 23.5111 12.7782 23.5111H37.3117C37.8739 23.5114 38.3338 23.0515 38.3338 22.4893V22.4893Z" fill="white"/>
<path d="M38.3338 5.11149C38.3338 5.67622 37.876 6.13362 37.3117 6.13362C36.747 6.13362 36.2896 5.6762 36.2896 5.11149C36.2896 4.54711 36.747 4.08936 37.3117 4.08936C37.8761 4.08936 38.3338 4.54713 38.3338 5.11149Z" fill="white"/>
<path d="M9.7115 22.4893C9.7115 23.0537 9.25409 23.5114 8.68937 23.5114C8.12499 23.5114 7.66724 23.0537 7.66724 22.4893C7.66724 21.9246 8.12501 21.4668 8.68937 21.4668C9.25411 21.4668 9.7115 21.9246 9.7115 22.4893Z" fill="white"/>
</svg>
