<svg width="37" height="43" viewBox="0 0 37 43" fill="none" xmlns="http://www.w3.org/2000/svg">
<path d="M36.5313 22.7712L33.2022 17.7109C33.1133 17.5778 33.0691 17.4447 33.0691 17.2669C32.4034 9.80991 26.322 4.17247 18.8649 4.0837C16.9118 1.59805 13.9378 0 10.5643 0C4.74928 0 0 4.74968 0 10.6087C0 14.071 1.68682 17.0895 4.21678 19.0425C4.34992 23.5256 6.48049 27.9201 9.94268 30.8941C9.98695 30.9383 10.1201 31.0272 10.1201 31.2049V38.7508C10.1201 40.0379 11.0966 41.1034 12.3838 41.1922L23.7027 42.2131H23.9248C24.5462 42.2131 25.1233 41.9911 25.6116 41.5474C26.0999 41.1034 26.4104 40.4377 26.4104 39.7274L26.4107 35.0666H29.6955C31.6487 35.0666 33.202 33.4686 33.202 31.5601V27.1656H34.2228C35.2437 27.1656 36.176 26.5884 36.6643 25.7008C37.1525 24.7246 37.1083 23.6591 36.5311 22.7714L36.5313 22.7712ZM2.66326 10.6089C2.66326 6.21437 6.25861 2.61902 10.6531 2.61902C15.0476 2.61902 18.6429 6.21437 18.6429 10.6089C18.6429 15.0034 15.0476 18.5987 10.6531 18.5987C6.25885 18.5987 2.66326 15.0034 2.66326 10.6089ZM34.2231 24.4579H32.2703C31.2938 24.4579 30.5392 25.2568 30.5392 26.1891V31.4713C30.5392 31.9596 30.1397 32.359 29.6515 32.359H25.701C24.6356 32.359 23.7478 33.2467 23.7478 34.3121V39.4612L12.7396 38.5289V31.1604C12.7396 30.2728 12.3402 29.4293 11.6742 28.8522C9.23276 26.7659 7.54626 23.7031 7.01336 20.5516C8.12306 20.951 9.32162 21.2173 10.6087 21.2173C16.4681 21.2173 21.2174 16.4676 21.2174 10.6086C21.2174 9.32148 20.9512 8.0783 20.5072 6.92437C25.8337 7.7232 29.9618 11.9846 30.4501 17.5331C30.4944 18.1102 30.6721 18.5985 30.9384 19.1311L34.3118 24.4133C34.3121 24.4579 34.2232 24.4579 34.2232 24.4579L34.2231 24.4579Z" fill="white"/>
<path d="M10.6088 11.9406H14.4262C15.1365 11.9406 15.7579 11.3635 15.7579 10.6089C15.7579 9.89859 15.1808 9.27715 14.4262 9.27715H11.9405V5.90374C11.9405 5.19346 11.3634 4.57202 10.6088 4.57202C9.89854 4.57202 9.2771 5.14916 9.2771 5.90374V10.5646C9.32138 11.3191 9.89852 11.9405 10.6088 11.9405V11.9406Z" fill="white"/>
</svg>
