<svg width="38" height="37" viewBox="0 0 38 37" fill="none" xmlns="http://www.w3.org/2000/svg">
<path fill-rule="evenodd" clip-rule="evenodd" d="M0.000177807 5.59058H11.732C12.5233 5.59058 13.1644 6.23201 13.1644 7.02297C13.1644 7.81422 12.5233 8.45537 11.732 8.45537H2.86525V30.6376C2.86525 31.8801 3.64453 32.9405 4.7411 33.357C5.35024 33.0472 5.74416 32.6546 6.00558 32.2133C6.32741 31.6693 6.51116 30.943 6.51116 29.9901V28.5579H26.737V29.9901C26.737 31.5329 26.6491 32.9868 26.0285 34.1299C25.3258 35.4247 24.1198 36.0503 22.6326 36.3768L22.4809 36.4102H5.77292C2.5847 36.4102 0 33.8258 0 30.6376L0.000177807 5.59058ZM8.54338 33.5457H22.1625C23.1026 33.318 23.3668 33.0288 23.5105 32.764C23.6583 32.4917 23.7641 32.0863 23.8217 31.4227H9.26401C9.14151 32.1685 8.91183 32.8851 8.54325 33.5457H8.54338Z" fill="white"/>
<path fill-rule="evenodd" clip-rule="evenodd" d="M4.67896 12.3201C4.67896 11.5291 5.32039 10.8877 6.11135 10.8877H9.6793C10.4703 10.8877 11.1117 11.5291 11.1117 12.3201C11.1117 13.1111 10.4703 13.7525 9.6793 13.7525H6.11135C5.32039 13.7525 4.67896 13.1111 4.67896 12.3201Z" fill="white"/>
<path fill-rule="evenodd" clip-rule="evenodd" d="M4.67896 17.9255C4.67896 17.1346 5.32039 16.4934 6.11135 16.4934H11.8495C12.6407 16.4934 13.2819 17.1346 13.2819 17.9255C13.2819 18.7168 12.6407 19.3579 11.8495 19.3579H6.11135C5.32039 19.3579 4.67896 18.7168 4.67896 17.9255Z" fill="white"/>
<path fill-rule="evenodd" clip-rule="evenodd" d="M4.67896 23.1922C4.67896 22.4012 5.32039 21.7598 6.11135 21.7598H14.0566C14.8476 21.7598 15.4887 22.4012 15.4887 23.1922C15.4887 23.9834 14.8475 24.6246 14.0566 24.6246H6.11135C5.32039 24.6246 4.67896 23.9834 4.67896 23.1922Z" fill="white"/>
<path fill-rule="evenodd" clip-rule="evenodd" d="M22.8992 25.6077C23.6902 25.6077 24.3313 26.2491 24.3313 27.0401V29.6442C24.3313 30.4355 23.6901 31.0766 22.8992 31.0766C22.1079 31.0766 21.4668 30.4355 21.4668 29.6442V27.0401C21.4668 26.2491 22.108 25.6077 22.8992 25.6077Z" fill="white"/>
<path fill-rule="evenodd" clip-rule="evenodd" d="M25.5619 2.86436C20.5025 2.86436 16.4007 6.96577 16.4007 12.0255C16.4007 17.0852 20.5024 21.1866 25.5619 21.1866C30.6215 21.1866 34.723 17.0852 34.723 12.0255C34.723 6.96577 30.6216 2.86436 25.5619 2.86436ZM13.5364 12.0255C13.5364 5.38371 18.9207 0 25.5619 0C32.2036 0 37.5873 5.38399 37.5873 12.0255C37.5873 18.667 32.2034 24.051 25.5619 24.051C18.9203 24.051 13.5364 18.6667 13.5364 12.0255Z" fill="white"/>
<path fill-rule="evenodd" clip-rule="evenodd" d="M25.562 4.41357C26.3532 4.41357 26.9944 5.05473 26.9944 5.84569V11.7264L30.6946 15.4266C31.2539 15.9859 31.2539 16.8926 30.6946 17.4522C30.1353 18.0115 29.2283 18.0115 28.6689 17.4522L24.1296 12.9129V5.84576C24.1296 5.0548 24.7711 4.41365 25.562 4.41365L25.562 4.41357Z" fill="white"/>
</svg>
