<svg width="37" height="48" viewBox="0 0 37 48" fill="none" xmlns="http://www.w3.org/2000/svg">
<path d="M5.17527 33.7895L7.99487 32.754C7.5539 32.4325 7.21866 31.9896 7.02965 31.4801C6.38821 29.7308 7.69724 27.6384 9.94576 26.7846C12.1939 25.9306 14.546 26.6925 15.172 28.4526L15.172 28.4522C15.353 28.9636 15.3814 29.5173 15.2544 30.0477L18.4482 28.8761L17.0903 25.173L17.09 25.173C17.0348 25.0231 17.079 24.8544 17.2009 24.7481C17.3216 24.6414 17.4959 24.6193 17.638 24.693C18.1918 24.9981 18.8538 25.0542 19.4578 24.847C20.8289 24.3404 21.4001 22.4532 20.7319 20.6375L20.7319 20.6379C20.4365 19.7838 19.8663 19.0515 19.1074 18.5528C18.5016 18.1333 17.7275 18.0248 17.0206 18.2596C16.4256 18.4919 15.9575 18.9649 15.7351 19.558C15.6817 19.7137 15.527 19.8127 15.3623 19.7973C15.2012 19.7962 15.0593 19.6963 15.0055 19.5468L13.6261 15.7823L2.31144 19.9865C1.80657 20.181 1.39575 20.5609 1.16507 21.046C0.934425 21.5312 0.901759 22.0839 1.07473 22.5875L5.17527 33.7895Z" fill="white"/>
<path d="M19.6518 10.1248C20.4227 9.51534 21.4373 9.30336 22.3827 9.55445C23.4294 9.82976 24.359 10.4224 25.0426 11.2497C25.7258 12.077 26.1282 13.0976 26.1938 14.1689C26.2534 15.1353 25.8509 16.0782 25.1076 16.7166C24.6774 17.0589 24.1584 17.2731 23.6121 17.3341L25.5892 19.7635L29.371 16.703L29.3706 16.703C29.4936 16.5981 29.6701 16.5823 29.8083 16.6633C29.9475 16.74 30.0239 16.8945 29.9995 17.0514C29.8839 17.6725 30.0396 18.3098 30.4274 18.8057C31.3444 19.9164 33.3292 19.8148 34.8556 18.5779C36.3817 17.341 36.8748 15.4444 35.9577 14.3187L35.9573 14.3187C35.5457 13.8426 34.9454 13.5656 34.3087 13.5578C34.1512 13.5459 34.0179 13.4403 33.9725 13.2913C33.9249 13.1398 33.9746 12.9738 34.0991 12.8713L36.5875 10.8525L28.9962 1.64883C28.6484 1.23907 28.1509 0.981885 27.6102 0.93196C27.0691 0.882396 26.5278 1.04354 26.1012 1.38181L16.7122 8.99813L18.7365 11.4523C18.9069 10.9332 19.2247 10.4724 19.6519 10.1247L19.6518 10.1248Z" fill="white"/>
<path d="M20.8583 34.1011C20.7379 34.2082 20.5644 34.2321 20.4209 34.1613C19.8655 33.8547 19.2023 33.7968 18.5957 34.002C17.9125 34.2845 17.4002 34.8677 17.2138 35.5756C16.9551 36.4471 16.9932 37.3755 17.3216 38.2171C17.9848 40.033 19.6414 41.1026 20.9913 40.5964C21.5864 40.3641 22.0549 39.8911 22.2769 39.2979C22.2911 39.2613 22.3122 39.2278 22.3385 39.1985L22.3697 39.1979C22.3863 39.1796 22.4054 39.1634 22.4267 39.1504C22.4535 39.1326 22.4835 39.1197 22.5147 39.1127L22.6085 39.1108C22.7695 39.1119 22.9118 39.2118 22.9652 39.3613L24.1788 42.6708L35.5305 38.491L35.5308 38.4909C36.0357 38.2964 36.4469 37.9169 36.6776 37.4317C36.9083 36.9465 36.9406 36.3937 36.7676 35.8897L32.7289 24.6296L30.5061 25.4469C30.9501 25.7694 31.2904 26.2112 31.487 26.7209C31.7918 27.6353 31.6449 28.6429 31.0904 29.4445C30.4727 30.3382 29.5897 31.0215 28.5652 31.398C27.5404 31.7743 26.4257 31.8251 25.378 31.5427C24.4364 31.2923 23.6723 30.6193 23.3132 29.7239C23.1321 29.2121 23.1034 28.6585 23.2304 28.1279L19.4394 29.518L20.9633 33.6821C21.0203 33.8291 20.9782 33.9963 20.8578 34.1015L20.8583 34.1011Z" fill="white"/>
<path d="M14.3672 31.0863C14.2602 30.9679 14.2401 30.7956 14.3162 30.6541C14.6279 30.1007 14.6921 29.4463 14.4923 28.8496C13.9948 27.4973 12.091 26.9524 10.2514 27.6292C8.41148 28.306 7.30567 29.9635 7.79782 31.29L7.79745 31.2904C8.03099 31.8756 8.50527 32.3325 9.10284 32.5486C9.24893 32.6101 9.34195 32.7537 9.33759 32.9114C9.33324 33.0691 9.23269 33.2097 9.08333 33.2663L5.47082 34.5977L9.57518 45.7937L9.57518 45.794C9.76644 46.2919 10.1464 46.6946 10.6349 46.9177C11.1233 47.1407 11.6824 47.1666 12.194 46.9901L23.5554 42.8048L22.6293 40.2436C22.2973 40.6811 21.846 41.0162 21.3293 41.2086C19.5518 41.8633 17.4434 40.5951 16.6094 38.3776L16.6094 38.3779C16.2246 37.3736 16.1849 36.2688 16.4965 35.2329C16.7537 34.2941 17.4457 33.5273 18.3603 33.1678C18.8788 32.9785 19.4401 32.9421 19.976 33.0631L18.7768 29.723L14.7956 31.1906L14.7952 31.1906C14.6429 31.244 14.4744 31.2028 14.3668 31.0858L14.3672 31.0863Z" fill="white"/>
</svg>
