<svg width="43" height="49" viewBox="0 0 43 49" fill="none" xmlns="http://www.w3.org/2000/svg">
<path d="M20.2232 5.84214V7.42517C20.2232 8.2933 21.1936 8.80412 21.8576 8.2933L26.5559 5.12713C27.1686 4.71853 27.1686 3.79944 26.5559 3.33954L21.8576 0.173378C21.1426 -0.286158 20.2232 0.224318 20.2232 1.0415V2.72677C8.98809 3.49265 0 12.8894 0 24.3288C0 25.146 0.664002 25.8096 1.48081 25.8096C2.29799 25.8096 2.96162 25.1456 2.96162 24.3288C3.01327 14.5236 10.6223 6.50585 20.2237 5.84195L20.2232 5.84214Z" fill="white"/>
<path d="M42.9999 24.329C42.9999 23.5118 42.3359 22.8481 41.5191 22.8481C40.7019 22.8481 40.0383 23.5121 40.0383 24.329C40.0383 34.1341 32.429 42.1519 22.7771 42.8158V41.2328C22.7771 40.3647 21.8067 39.8538 21.1427 40.3647L16.3931 43.4798C15.7804 43.8884 15.7804 44.8075 16.3931 45.2674L21.0914 48.4336C21.8064 48.8931 22.7258 48.3826 22.7258 47.5655V45.8802C34.012 45.1653 43.0001 35.7686 43.0001 24.3292L42.9999 24.329Z" fill="white"/>
<path d="M35.2374 24.3289C35.2374 16.7196 29.1092 10.5914 21.4999 10.5914C13.8906 10.5914 7.76245 16.7196 7.76245 24.3289C7.76245 31.9382 13.8906 38.0664 21.4999 38.0664C29.1092 38.0664 35.2374 31.9382 35.2374 24.3289ZM19.7125 29.7421C19.3039 29.7421 18.8953 29.5889 18.589 29.2826L14.6566 25.3502C14.0439 24.7375 14.0439 23.7158 14.6566 23.1031C15.2693 22.4903 16.291 22.4903 16.9037 23.1031L19.7126 25.9119L26.0962 19.5283C26.7089 18.9156 27.7306 18.9156 28.3433 19.5283C28.956 20.1411 28.956 21.1627 28.3433 21.7755L20.8362 29.2826C20.5299 29.5889 20.1213 29.7421 19.7127 29.7421H19.7125Z" fill="white"/>
</svg>
