<svg width="45" height="42" viewBox="0 0 45 42" fill="none" xmlns="http://www.w3.org/2000/svg">
<path d="M38.5043 18.7014L37.4204 17.4225C36.8237 16.718 35.7691 16.6309 35.0646 17.228C34.3605 17.8248 34.2734 18.8795 34.8702 19.5841L39.2147 24.7109C40.0021 25.6404 41.4876 25.4421 42.0038 24.3384L44.8422 18.2701C45.2332 17.4341 44.8726 16.4389 44.0363 16.0478C43.2003 15.6567 42.2053 16.0174 41.8142 16.8538L41.6523 17.1994C39.8642 7.41582 31.2967 0 20.9976 0C9.40102 0 0 9.40209 0 21C0 32.5979 9.40102 42 20.9976 42C26.2054 42 31.1221 40.0946 34.9366 36.7056C35.6267 36.0924 35.6893 35.0359 35.0762 34.3457C34.4634 33.6555 33.4067 33.5929 32.7166 34.2058C29.5074 37.0564 25.3791 38.6568 20.9973 38.6568C11.2471 38.6568 3.3423 30.7514 3.3423 20.9998C3.3423 11.2482 11.2468 3.34276 20.9973 3.34276C29.9685 3.34276 37.3772 10.0354 38.5037 18.701L38.5043 18.7014ZM20.9979 25.1793C23.3057 25.1793 25.1767 23.3081 25.1767 21.0001C25.1767 18.692 23.3057 16.8208 20.9979 16.8208C18.6902 16.8208 16.8192 18.692 16.8192 21.0001C16.8192 23.3081 18.6902 25.1793 20.9979 25.1793Z" fill="white"/>
</svg>
