<svg width="37" height="41" viewBox="0 0 37 41" fill="none" xmlns="http://www.w3.org/2000/svg">
<path d="M0 24.4008V2.31738C0 1.70264 0.244054 1.11317 0.678761 0.678761C1.11318 0.244054 1.70267 0 2.31738 0H25.4012C24.437 1.00318 23.8315 2.29728 23.6787 3.68032C23.5262 5.06337 23.8352 6.45825 24.5573 7.64783C24.1892 7.80374 23.8455 8.01161 23.5365 8.26514L20.9433 10.4056L18.4036 8.40098C17.5262 7.70384 16.4061 7.38714 15.2936 7.5218C14.1812 7.65646 13.1689 8.23099 12.4829 9.11705C11.7973 10.0034 11.495 11.1275 11.6437 12.2381C11.7924 13.3489 12.3799 14.3536 13.2748 15.0281L18.4036 19.0785C19.0712 19.6036 19.8823 19.9134 20.7299 19.9671C21.5774 20.0209 22.4213 19.8158 23.1495 19.3788V26.7183H2.31782C1.70309 26.7183 1.11361 26.474 0.679203 26.0395C0.244495 25.6048 0.000440779 25.0153 0.000440779 24.4006L0 24.4008ZM29.9865 8.28587C31.0236 8.28587 32.0182 7.87384 32.7515 7.14053C33.4848 6.40722 33.8968 5.41261 33.8968 4.37555C33.8968 3.33849 33.4848 2.34384 32.7515 1.61057C32.0182 0.876964 31.0236 0.465234 29.9865 0.465234C28.9492 0.465234 27.9545 0.876971 27.2212 1.61057C26.4879 2.34388 26.0759 3.33849 26.0759 4.37555C26.0759 5.41261 26.4879 6.40726 27.2212 7.14053C27.9546 7.87385 28.9492 8.28587 29.9865 8.28587ZM32.5218 40.3386C33.0142 40.3386 33.4865 40.143 33.8345 39.7951C34.1828 39.4468 34.3783 38.9748 34.3783 38.4824V23.2524C35.0625 23.1169 35.679 22.7485 36.1217 22.2093C36.5648 21.6704 36.8068 20.9945 36.8068 20.2968V12.7597C36.8068 11.9606 36.4896 11.1943 35.9245 10.6293C35.3594 10.0643 34.5928 9.74664 33.7938 9.74664H26.195C25.7878 9.7498 25.3944 9.89537 25.0835 10.1584L20.9673 13.5542L16.8801 10.3188C16.4865 10.003 15.9757 9.87236 15.4787 9.96079C14.982 10.0489 14.5476 10.3475 14.2869 10.78C14.0692 11.1581 13.9963 11.6024 14.0819 12.0301C14.1674 12.458 14.4057 12.8401 14.752 13.1054L19.8932 17.1558C20.2079 17.4085 20.6004 17.5443 21.0041 17.5406C21.4075 17.5369 21.7974 17.3936 22.1075 17.1352L25.5897 14.2539L25.59 38.4822C25.5559 38.9947 25.7356 39.4986 26.0865 39.8739C26.4376 40.2491 26.9283 40.4622 27.4422 40.4622C27.9559 40.4622 28.4469 40.2491 28.7977 39.8739C29.1489 39.4986 29.3286 38.9947 29.2944 38.4822V27.6279C29.2939 27.4272 29.3823 27.2368 29.5353 27.1073C29.6887 26.9778 29.8914 26.923 30.0889 26.9569C30.4237 27.0246 30.6617 27.3232 30.6528 27.6649V38.4824C30.6528 38.9769 30.8501 39.4509 31.2009 39.7995C31.5518 40.148 32.027 40.3421 32.5214 40.3387L32.5218 40.3386Z" fill="white"/>
</svg>
