<svg width="35" height="44" viewBox="0 0 35 44" fill="none" xmlns="http://www.w3.org/2000/svg">
<path d="M15.0945 3.03902e-05C7.86568 -0.0150281 0.00771449 5.56667 4.46532e-06 15.5032C-0.00434579 21.0531 3.17071 25.2144 6.04252 29.1593C8.84845 33.0137 9.00171 33.5655 7.47179 39.7426C11.9529 43.1198 16.5216 41.4734 23.5215 43.176C23.3813 40.024 23.2718 38.5463 24.4153 37.3924C25.6842 36.1121 28.9761 38.3325 30.2895 36.1824C31.5882 34.0568 29.0055 33.7071 31.357 31.3975C32.0393 30.7275 30.1129 30.4347 30.092 29.7875C30.074 29.225 31.5106 29.996 31.8499 29.311C32.2053 28.5935 31.0662 27.9681 31.684 27.1925C32.4432 26.2394 34.355 27.5241 34.9042 26.1872C35.3586 25.0806 34.1666 23.5001 31.9678 20.3298C30.8253 18.6824 30.8002 17.7199 30.8748 16.713C31.3878 9.76764 26.7411 0.0242313 15.0941 0.000244603L15.0945 3.03902e-05ZM15.2752 1.33052C22.9334 1.33052 29.1404 7.53735 29.1404 15.1957C29.1404 22.8539 22.9336 29.0609 15.2752 29.0609C7.61703 29.0609 1.41003 22.8541 1.41003 15.1957C1.41003 7.53752 7.61685 1.33052 15.2752 1.33052Z" fill="white"/>
<path d="M15.2752 2.8421C8.45257 2.8421 2.92114 8.37293 2.92114 15.1961C2.92114 22.0187 8.45197 27.5502 15.2752 27.5502C22.0978 27.5502 27.6292 22.0193 27.6292 15.1961C27.6292 8.37353 22.0984 2.8421 15.2752 2.8421ZM15.2752 4.35335C21.2631 4.35335 26.1172 9.20758 26.1172 15.1954C26.1172 21.1833 21.2629 26.0374 15.2752 26.0374C9.28722 26.0374 4.43316 21.1831 4.43316 15.1954C4.43316 9.20741 9.28739 4.35335 15.2752 4.35335Z" fill="white"/>
<path d="M15.2752 5.86487C10.1218 5.86487 5.94434 10.0425 5.94434 15.1957C5.94434 20.3489 10.122 24.5265 15.2752 24.5265C20.4284 24.5265 24.606 20.3489 24.606 15.1957C24.606 10.0425 20.4284 5.86487 15.2752 5.86487ZM15.2752 7.50762C19.5213 7.50762 22.9634 10.9497 22.9634 15.1959C22.9634 19.442 19.5213 22.8841 15.2752 22.8841C11.029 22.8841 7.58691 19.442 7.58691 15.1959C7.58691 10.9497 11.029 7.50762 15.2752 7.50762Z" fill="white"/>
<path d="M15.2754 9.01904C11.8641 9.01904 9.09863 11.7845 9.09863 15.1958C9.09863 18.6071 11.864 21.3726 15.2754 21.3726C18.6866 21.3726 21.4521 18.6071 21.4521 15.1958C21.4521 11.7845 18.6867 9.01904 15.2754 9.01904ZM15.2754 10.5303C17.8521 10.5303 19.9409 12.6191 19.9409 15.1958C19.9409 17.7725 17.8521 19.8613 15.2754 19.8613C12.6987 19.8613 10.6099 17.7725 10.6099 15.1958C10.6099 12.6191 12.6987 10.5303 15.2754 10.5303Z" fill="white"/>
<path d="M15.2753 12.0414C13.5331 12.0414 12.1213 13.4535 12.1213 15.1953C12.1213 16.9374 13.5335 18.3492 15.2753 18.3492C17.0174 18.3492 18.4292 16.9371 18.4292 15.1953C18.4292 13.4532 17.017 12.0414 15.2753 12.0414ZM15.2753 13.5526C16.1825 13.5526 16.918 14.2882 16.918 15.1954C16.918 16.1026 16.1825 16.8381 15.2753 16.8381C14.368 16.8381 13.6325 16.1026 13.6325 15.1954C13.6325 14.2882 14.368 13.5526 15.2753 13.5526Z" fill="white"/>
</svg>
