<svg width="42" height="28" viewBox="0 0 42 28" fill="none" xmlns="http://www.w3.org/2000/svg">
<path d="M26.7236 21.5916C25.9544 21.5916 25.3284 22.2176 25.3284 22.988C25.3284 23.7584 25.9544 24.3844 26.7236 24.3844C27.4979 24.3844 28.1227 23.7584 28.1227 22.988C28.1227 22.2176 27.4979 21.5916 26.7236 21.5916Z" fill="white"/>
<path d="M25.9736 15.6337C23.0979 18.4293 21.4547 18.268 21.0006 18.268C20.5438 18.268 18.9032 18.4293 16.0276 15.6337C16.0276 15.6337 8.1687 16.2413 8.1687 27.5431H33.8306C33.8306 16.2417 25.974 15.6337 25.974 15.6337H25.9736ZM26.7243 25.4108C24.678 25.4108 24.123 21.4786 24.3657 21.4523C25.8986 21.2961 26.5497 20.2133 26.7243 20.2133C26.9041 20.2133 27.5524 21.2961 29.0854 21.4523C29.3322 21.4783 28.7757 25.4108 26.7243 25.4108Z" fill="white"/>
<path d="M21.0002 16.121C24.758 16.121 27.8055 11.3369 27.8055 6.88538C27.8055 2.43478 24.758 0 21.0002 0C17.2411 0 14.1936 2.43478 14.1936 6.88538C14.1948 11.3387 17.2411 16.121 21.0002 16.121Z" fill="white"/>
<path d="M11.323 16.6926C10.9136 16.7871 10.6393 16.7699 10.5 16.7699C10.1271 16.7699 8.78448 16.9025 6.43129 14.6133C6.43129 14.6133 0 15.1106 0 24.3602H7.3697C8.01142 20.448 9.64292 18.092 11.323 16.6929V16.6926Z" fill="white"/>
<path d="M10.5 15.0103C12.1236 15.0103 13.5714 13.9064 14.5898 12.3407C13.7367 10.6241 13.2354 8.64604 13.2354 6.7194C13.2354 5.27044 13.5411 4.0341 14.0466 2.97094C13.0788 2.2265 11.8543 1.81952 10.5 1.81952C7.42463 1.81952 4.93091 3.81205 4.93091 7.45417C4.93091 11.0963 7.42494 15.0103 10.5 15.0103V15.0103Z" fill="white"/>
<path d="M35.5687 14.6136C33.2154 16.9013 31.8728 16.7702 31.5 16.7702C31.3623 16.7702 31.0879 16.7886 30.677 16.6928C32.3556 18.092 33.9886 20.4479 34.6303 24.3604L42 24.3601C42 15.1106 35.5687 14.6133 35.5687 14.6133V14.6136Z" fill="white"/>
<path d="M27.4089 12.3404C28.4262 13.9063 29.8752 15.01 31.5 15.01C34.5765 15.01 37.0676 11.096 37.0676 7.45269C37.0676 3.8091 34.5765 1.81927 31.5 1.81927C30.1441 1.81927 28.9184 2.22744 27.9549 2.97038C28.4576 4.03479 28.7646 5.27105 28.7646 6.71885C28.7649 8.64579 28.2646 10.625 27.409 12.3405L27.4089 12.3404Z" fill="white"/>
</svg>
