<svg width="471" height="355" viewBox="0 0 471 355" fill="none" xmlns="http://www.w3.org/2000/svg">
<g clip-path="url(#clip0_2622_423)">
<path opacity="0.18" d="M139.545 34.0146C131.535 42.2777 124.908 51.7556 117.896 60.8486C91.4352 94.9473 58.8288 124.235 35.688 160.679C12.5472 197.123 -0.0455866 244.441 18.4526 283.375C30.9251 309.667 55.7979 328.298 82.4868 339.905C105.321 349.974 130.021 355.117 154.976 355C207.127 354.387 255.478 328.924 306.522 317.966C329.146 313.155 352.347 311.099 374.718 305.205C390.57 301.043 406.085 294.849 419.219 285.119C455.65 258.249 468.532 206.938 457.779 162.952C447.027 118.967 416.104 82.0656 379.889 54.8828C318.549 8.69609 202.208 -30.7069 139.545 34.0146Z" fill="#6288E9"/>
<path d="M48.437 302.535C47.7765 302.573 47.1378 302.785 46.5848 303.148C46.2189 303.492 45.9439 303.922 45.7844 304.398C45.6249 304.875 45.5858 305.383 45.6707 305.878C46.1397 310.846 51.7806 313.348 56.5916 314.707C83.4736 322.317 111.336 325.896 139.268 325.327C140.952 321.214 138.474 316.367 134.866 313.781C131.258 311.195 126.76 310.245 122.466 309.078C116.452 307.418 110.98 304.579 105.11 302.535C99.8543 300.707 93.6722 300.899 88.0554 300.634C74.8189 299.997 61.5518 300.634 48.437 302.535Z" fill="url(#paint0_linear_2622_423)"/>
<path d="M181.172 222.502L133.964 220.974L139.822 254.652L173.27 255.723L181.172 222.502Z" fill="#6288E9"/>
<path d="M181.172 222.502L133.964 220.974L139.822 254.652L173.27 255.723L181.172 222.502Z" fill="url(#paint1_linear_2622_423)"/>
<path d="M130.019 139.715C128.857 142.085 128.283 144.701 128.347 147.34C127.758 159.26 127.854 171.396 131.426 182.822C136.67 199.565 148.878 213.072 160.737 226.002C159.847 224.571 162.481 216.993 162.842 215.177C163.528 211.569 164.309 208.117 165.055 204.581C166.258 199.012 165.055 193.142 163.66 187.646C160.62 175.212 154.686 163.673 146.34 153.968C141.6 148.47 136.105 143.672 130.019 139.715Z" fill="#6288E9"/>
<path d="M130.019 139.715C128.857 142.085 128.283 144.701 128.347 147.34C127.758 159.26 127.854 171.396 131.426 182.822C136.67 199.565 148.878 213.072 160.737 226.002C159.847 224.571 162.481 216.993 162.842 215.177C163.528 211.569 164.309 208.117 165.055 204.581C166.258 199.012 165.055 193.142 163.66 187.646C160.62 175.212 154.686 163.673 146.34 153.968C141.6 148.47 136.105 143.672 130.019 139.715Z" fill="url(#paint2_linear_2622_423)"/>
<path d="M182.892 180.092C186.897 171.191 190.95 162.158 192.454 152.512C193.957 142.866 192.622 132.366 186.717 124.596C179.091 136.142 171.474 147.689 163.865 159.236C159.463 165.911 154.988 172.719 152.823 180.429C149.047 193.924 152.402 214.696 161.399 225.641C166.535 221.263 168.94 211.208 171.706 205.05L182.892 180.092Z" fill="#6288E9"/>
<path d="M182.892 180.092C186.897 171.191 190.95 162.158 192.454 152.512C193.957 142.866 192.622 132.366 186.717 124.596C179.091 136.142 171.474 147.689 163.865 159.236C159.463 165.911 154.988 172.719 152.823 180.429C149.047 193.924 152.402 214.696 161.399 225.641C166.535 221.263 168.94 211.208 171.706 205.05L182.892 180.092Z" fill="url(#paint3_linear_2622_423)"/>
<path d="M132.633 209.378C128.404 209.241 124.865 212.559 124.728 216.788C124.591 221.017 127.909 224.557 132.138 224.693L182.759 226.328C186.989 226.465 190.528 223.147 190.664 218.918C190.801 214.689 187.483 211.149 183.254 211.013L132.633 209.378Z" fill="#6288E9"/>
<path d="M262.057 207.539L278.378 245.92L329.098 254.303L312.776 209.307L262.057 207.539Z" fill="#6288E9"/>
<path d="M262.057 207.539L278.378 245.92L329.098 254.303L312.776 209.307L262.057 207.539Z" fill="url(#paint4_linear_2622_423)"/>
<path d="M278.378 245.92L245.735 254.303L312.56 273.488L329.098 254.303L278.378 245.92Z" fill="url(#paint5_linear_2622_423)"/>
<path d="M278.378 245.92L245.735 254.303L304.622 282.689L329.098 254.303L278.378 245.92Z" fill="#6288E9"/>
<path d="M278.378 245.92L245.735 254.303L304.622 282.689L329.098 254.303L278.378 245.92Z" fill="url(#paint6_linear_2622_423)"/>
<path d="M252.471 207.539L268.78 245.92L319.512 254.303L303.19 209.307L252.471 207.539Z" fill="#6288E9"/>
<path d="M264.715 236.334L309.433 226.531L303.19 209.307L252.471 207.539L264.715 236.334Z" fill="url(#paint7_linear_2622_423)"/>
<path d="M268.78 245.92L236.149 254.303L302.962 273.488L319.512 254.303L268.78 245.92Z" fill="#6288E9"/>
<path d="M268.78 245.92L236.149 254.303L302.962 273.488L319.512 254.303L268.78 245.92Z" fill="url(#paint8_linear_2622_423)"/>
<path d="M302.962 273.488L304.622 282.689L234.49 261.58L236.15 254.303L302.962 273.488Z" fill="#6288E9"/>
<path d="M302.962 273.488L304.622 282.689L234.49 261.58L236.15 254.303L302.962 273.488Z" fill="url(#paint9_linear_2622_423)"/>
<path d="M384.123 47.1849V219.435C384.095 221.369 383.302 223.214 381.919 224.566C380.535 225.918 378.673 226.668 376.738 226.651H375.993L182.88 205.182C181.101 204.982 179.456 204.138 178.258 202.808C177.059 201.478 176.388 199.756 176.373 197.965V66.8624C176.385 65.0613 177.062 63.328 178.274 61.9959C179.486 60.6637 181.148 59.8267 182.94 59.6457L376.065 39.872C377.02 39.7738 377.986 39.8649 378.906 40.14C379.827 40.4151 380.684 40.8689 381.429 41.4754C382.174 42.0819 382.792 42.8293 383.248 43.6748C383.704 44.5203 383.989 45.4474 384.087 46.4031C384.111 46.6557 384.123 46.9203 384.123 47.1849Z" fill="#6288E9"/>
<path d="M384.123 47.1849V219.435C384.095 221.369 383.302 223.214 381.919 224.566C380.535 225.918 378.673 226.668 376.738 226.651H375.993L182.88 205.182C181.101 204.982 179.456 204.138 178.258 202.808C177.059 201.478 176.388 199.756 176.373 197.965V66.8624C176.385 65.0613 177.062 63.328 178.274 61.9959C179.486 60.6637 181.148 59.8267 182.94 59.6457L376.065 39.872C377.02 39.7738 377.986 39.8649 378.906 40.14C379.827 40.4151 380.684 40.8689 381.429 41.4754C382.174 42.0819 382.792 42.8293 383.248 43.6748C383.704 44.5203 383.989 45.4474 384.087 46.4031C384.111 46.6557 384.123 46.9203 384.123 47.1849Z" fill="url(#paint10_linear_2622_423)"/>
<path d="M379.276 47.1849V219.435C379.247 221.369 378.455 223.214 377.071 224.566C375.688 225.918 373.826 226.668 371.891 226.651H371.145L178.033 205.122C176.254 204.922 174.609 204.077 173.41 202.748C172.212 201.418 171.541 199.695 171.526 197.905V66.8023C171.538 65.0011 172.215 63.2679 173.427 61.9357C174.639 60.6036 176.301 59.7666 178.093 59.5856L371.218 39.872C372.173 39.7738 373.139 39.8649 374.059 40.14C374.98 40.4151 375.837 40.8689 376.582 41.4754C377.327 42.0819 377.945 42.8293 378.401 43.6748C378.857 44.5203 379.142 45.4474 379.24 46.4031C379.264 46.6557 379.276 46.9203 379.276 47.1849Z" fill="#6288E9"/>
<path d="M181.172 148.808V66.7903L364.061 51.948V150.816L181.172 148.808Z" fill="white"/>
<path d="M379.276 197.845V219.495C379.247 221.429 378.455 223.274 377.071 224.626C375.688 225.978 373.826 226.728 371.891 226.712H371.145L178.033 205.182C176.254 204.982 174.609 204.137 173.41 202.808C172.212 201.478 171.541 199.755 171.526 197.965V186.864L379.276 197.845Z" fill="url(#paint11_linear_2622_423)"/>
<path d="M213.827 184.867L176.265 182.919V154.016L213.887 154.569L213.827 184.867Z" fill="white"/>
<path d="M183.987 181.367C184.596 180.023 185.597 178.895 186.859 178.131C188.122 177.366 189.585 177.002 191.059 177.085C192.045 177.085 193.043 177.253 194.017 177.302C196.88 177.398 201.234 176.4 203.724 178.288C204.77 179.07 205.636 182.437 206.129 183.785C206.188 183.913 206.219 184.052 206.219 184.194C206.219 184.335 206.188 184.474 206.129 184.602C205.973 184.819 205.744 184.795 205.54 184.783C200.38 184.446 195.292 184.266 190.265 183.941L183.313 183.544C183.379 182.778 183.608 182.036 183.987 181.367Z" fill="#6288E9"/>
<path d="M193.789 178.757C194.015 178.971 194.275 179.146 194.559 179.274C195.099 179.566 195.715 179.692 196.327 179.635C196.648 179.578 196.946 179.428 197.183 179.203C197.421 178.979 197.587 178.69 197.662 178.372C197.722 178.002 197.722 177.624 197.662 177.253L197.541 175.918C197.519 175.263 197.384 174.616 197.145 174.006C197.052 173.782 196.917 173.579 196.746 173.408C196.575 173.237 196.372 173.101 196.149 173.008C195.925 172.915 195.686 172.868 195.444 172.867C195.202 172.867 194.963 172.915 194.739 173.008C194.171 173.349 193.744 173.882 193.536 174.511C193.019 175.954 192.586 177.506 193.789 178.757Z" fill="url(#paint12_linear_2622_423)"/>
<path d="M197.144 174.006C197.144 174.006 195.942 177.987 194.318 177.915C192.694 177.843 193.115 175.918 193.115 175.918L197.144 174.006Z" fill="url(#paint13_linear_2622_423)"/>
<path d="M190.806 172.154C190.95 172.851 191.227 173.501 191.407 174.186C191.481 174.501 191.585 174.807 191.72 175.101C191.934 175.495 192.272 175.808 192.682 175.991C193.085 176.186 193.527 176.288 193.975 176.288C194.423 176.288 194.865 176.186 195.268 175.991C195.848 175.644 196.354 175.186 196.757 174.643C197.159 174.1 197.45 173.483 197.613 172.827C198.205 171.481 198.609 170.061 198.816 168.606C198.816 167.968 198.191 167.174 197.998 166.573C197.786 165.946 197.441 165.372 196.988 164.889C196.656 164.425 196.25 164.018 195.785 163.686C195.23 163.397 194.6 163.282 193.978 163.355C193.357 163.428 192.771 163.686 192.297 164.095C191.938 164.346 191.632 164.665 191.395 165.033C190.93 166.065 190.755 167.205 190.89 168.329C190.724 169.597 190.696 170.879 190.806 172.154Z" fill="url(#paint14_linear_2622_423)"/>
<path d="M189.435 165.406C189.144 164.671 188.966 163.897 188.906 163.109C188.846 162.925 188.846 162.727 188.906 162.544C189.014 162.279 189.278 162.207 189.447 161.99C189.808 161.557 189.531 160.787 189.543 160.198C189.561 159.863 189.667 159.538 189.851 159.257C190.034 158.976 190.289 158.749 190.589 158.598C191.142 158.357 191.744 158.25 192.345 158.286C192.744 158.21 193.155 158.233 193.543 158.352C193.931 158.472 194.284 158.684 194.571 158.971C194.883 159.344 195.04 159.873 195.376 160.174C196.062 160.884 197.12 160.463 197.998 160.715C198.395 160.877 198.741 161.142 199.001 161.482C199.261 161.823 199.426 162.226 199.478 162.652C199.598 163.578 199.297 164.624 199.742 165.394C199.909 165.62 200.054 165.862 200.175 166.116C200.236 166.429 200.211 166.753 200.103 167.054C199.774 168.226 199.31 169.356 198.72 170.422C198.635 170.629 198.493 170.808 198.311 170.939C198.119 171.047 197.806 172.334 197.698 172.142C197.595 171.392 197.656 170.628 197.878 169.905C198.074 169.676 198.236 169.421 198.359 169.147C198.444 168.928 198.447 168.685 198.368 168.464C198.288 168.243 198.131 168.059 197.926 167.944C197.771 167.874 197.595 167.867 197.435 167.926C197.276 167.984 197.145 168.103 197.072 168.257C197.277 166.789 196.615 165.033 195.412 164.648C194.68 164.529 193.931 164.697 193.32 165.117C191.973 166.008 190.493 167.752 189.435 165.406Z" fill="#DD8049"/>
<path d="M197.578 168.665C197.587 168.636 197.603 168.609 197.623 168.586C197.644 168.564 197.669 168.545 197.698 168.533C197.732 168.525 197.767 168.528 197.799 168.541C197.832 168.554 197.859 168.576 197.878 168.605C197.983 168.672 198.06 168.775 198.095 168.894C198.119 168.989 198.119 169.088 198.095 169.183C198.06 169.371 197.999 169.553 197.914 169.724C197.878 169.807 197.822 169.879 197.75 169.933C197.679 169.988 197.594 170.024 197.505 170.037C197.433 170.037 197.325 169.82 197.325 169.736C197.325 169.652 197.397 169.604 197.433 169.531C197.463 169.24 197.511 168.951 197.578 168.665Z" fill="url(#paint15_linear_2622_423)"/>
<path d="M366.936 192.998L314.412 190.268L314.653 156.241L367.285 157.023L366.936 192.998Z" fill="white"/>
<path d="M310.419 190.171L263.692 187.742L263.837 155.591L310.648 156.289L310.419 190.171Z" fill="white"/>
<path d="M259.639 187.525L217.856 185.36L217.916 154.918L259.771 155.531L259.639 187.525Z" fill="white"/>
<path d="M281.782 159.152C283.512 158.609 285.355 158.539 287.122 158.947C288.155 159.058 289.152 159.39 290.045 159.921C291.654 161.237 292.679 163.134 292.895 165.202C293.133 167.287 293.535 169.35 294.098 171.372C294.892 173.645 296.503 175.606 297.032 177.963C297.496 179.708 297.25 181.565 296.349 183.129C295.447 184.693 293.964 185.837 292.222 186.31C291.689 186.426 291.142 186.471 290.598 186.443C289.215 186.371 287.868 185.817 286.496 185.757C283.658 185.613 280.952 187.573 278.222 186.828C275.984 186.214 274.409 183.917 273.519 181.608C272.869 180.197 272.7 178.613 273.038 177.097C273.639 175.113 275.588 174.006 276.466 172.13C277.584 169.784 276.766 166.934 277.668 164.54C278.486 162.339 279.521 160.006 281.782 159.152Z" fill="#606161"/>
<path d="M291.476 179.19C293.027 179.575 294.771 179.503 296.034 180.525C296.801 181.218 297.31 182.151 297.478 183.171C297.644 184.177 297.684 185.199 297.598 186.214L297.478 189.209C297.485 189.32 297.456 189.43 297.393 189.522C297.296 189.581 297.182 189.606 297.069 189.594L273.531 188.391C273.13 186.793 273.354 185.103 274.156 183.664C274.722 182.462 275.514 181.38 276.49 180.477C277.897 179.382 281.192 179.418 282.756 178.516C283.165 178.276 282.756 177.903 283.261 177.795C283.766 177.686 283.514 177.085 283.971 177.097C285.36 177.037 286.751 177.158 288.108 177.458C289.193 178.106 290.318 178.685 291.476 179.19Z" fill="#6288E9"/>
<path d="M282.251 179.671C282.128 180.062 282.047 180.465 282.01 180.874C282.006 181.341 282.113 181.803 282.322 182.221C282.531 182.639 282.837 183.002 283.213 183.279C283.582 183.539 284.011 183.7 284.459 183.746C284.908 183.792 285.361 183.723 285.775 183.544C286.69 183.075 287.382 182.262 287.699 181.283C288.035 180.266 288.206 179.202 288.204 178.131C288.24 176.697 288.168 175.261 287.988 173.837C288.021 173.612 287.97 173.383 287.843 173.194C287.716 173.005 287.523 172.87 287.302 172.815H287.122C286.337 172.674 285.527 172.815 284.836 173.213C284.144 173.612 283.616 174.242 283.345 174.992C283.179 175.508 283.066 176.04 283.008 176.58C282.84 177.674 282.467 178.673 282.251 179.671Z" fill="url(#paint16_linear_2622_423)"/>
<path d="M282.828 177.53C282.828 177.53 282.684 178.841 283.225 179.346C283.766 179.851 285.919 181.078 286.977 179.527C287.625 178.482 288.035 177.307 288.18 176.087L282.828 177.53Z" fill="url(#paint17_linear_2622_423)"/>
<path d="M279.893 173.128C280.17 174.09 281.794 177.518 284.079 178.228C289.01 179.755 290.586 170.325 290.345 168.329C290.028 166.679 289.243 165.155 288.084 163.939C287.48 163.403 286.733 163.054 285.934 162.937C285.134 162.819 284.319 162.938 283.586 163.277C279.725 164.973 278.691 169.014 279.893 173.128Z" fill="url(#paint18_linear_2622_423)"/>
<path d="M278.342 167.86C278.383 168.053 278.474 168.232 278.608 168.378C278.741 168.524 278.911 168.632 279.1 168.69C279.497 168.774 279.881 168.497 280.302 168.377C280.723 168.257 281.289 168.305 281.746 168.136C282.203 167.968 282.6 167.343 282.311 166.934C282.179 167.595 282.96 168.04 283.514 167.992C284.109 167.805 284.747 167.805 285.342 167.992L285.582 166.693C285.54 166.959 285.588 167.232 285.719 167.467C285.849 167.703 286.056 167.888 286.304 167.992C286.772 168.196 287.298 168.221 287.783 168.064C288 168.064 288.277 167.836 288.192 167.607C288.685 168.281 289.66 168.028 290.393 167.715C290.51 167.676 290.611 167.6 290.682 167.499C290.73 167.363 290.73 167.214 290.682 167.078C290.444 165.788 290.04 164.535 289.479 163.349C289.21 162.775 288.822 162.263 288.341 161.849C287.86 161.434 287.297 161.126 286.689 160.944C286.001 160.835 285.299 160.86 284.62 161.016C282.799 161.298 281.156 162.267 280.026 163.722C279.136 164.648 277.993 166.428 278.342 167.86Z" fill="#606161"/>
<path d="M334.775 160.414C336.731 159.85 338.796 159.776 340.788 160.198C341.943 160.32 343.06 160.676 344.072 161.244C347.343 163.289 346.477 166.056 346.814 169.195C346.831 169.708 346.98 170.209 347.248 170.647C347.516 171.086 347.892 171.447 348.342 171.697C348.967 171.985 349.725 171.985 350.254 172.43C350.519 172.719 350.702 173.072 350.787 173.454C350.871 173.836 350.853 174.234 350.735 174.607C350.555 175.365 350.17 176.051 350.013 176.808C349.926 177.105 349.956 177.424 350.098 177.698C350.326 178.047 350.783 178.131 351.168 178.3C351.608 178.554 351.978 178.913 352.244 179.346C352.511 179.778 352.666 180.27 352.696 180.778C352.828 181.788 352.696 182.798 352.756 183.796C352.852 184.429 352.9 185.069 352.9 185.709C352.735 186.657 352.245 187.518 351.514 188.143C350.783 188.769 349.857 189.12 348.895 189.137C346.962 189.138 345.054 188.702 343.314 187.862C341.592 187.015 339.688 186.602 337.769 186.659C335.773 186.888 333.656 188.126 331.9 187.032C331.408 186.676 331.011 186.204 330.742 185.659C330.474 185.114 330.343 184.512 330.361 183.905C330.408 182.708 330.66 181.528 331.106 180.417C331.276 180.069 331.31 179.67 331.202 179.298C331.033 179.018 330.803 178.78 330.529 178.6C328.003 176.447 328.989 168.702 330.084 166.08C331.058 163.782 332.237 161.317 334.775 160.414Z" fill="#FBB03B"/>
<path d="M345.623 181.668C347.355 182.089 349.328 182.016 350.747 183.111C351.598 183.832 352.172 184.827 352.371 185.925C352.542 186.991 352.583 188.073 352.491 189.149L352.347 192.324C352.357 192.441 352.323 192.557 352.25 192.649C352.144 192.719 352.016 192.748 351.89 192.733L325.429 191.434C325.209 190.595 325.157 189.721 325.277 188.862C325.396 188.004 325.685 187.177 326.127 186.431C326.778 185.147 327.672 184.003 328.761 183.063C330.348 181.86 334.041 181.944 335.809 180.994C336.266 180.753 335.809 180.357 336.374 180.248C336.94 180.14 336.663 179.491 337.168 179.503C338.73 179.438 340.293 179.567 341.823 179.887C343.17 180.333 344.192 181.319 345.623 181.668Z" fill="#6288E9"/>
<path d="M335.244 182.161C335.101 182.585 335.013 183.025 334.979 183.472C334.968 183.987 335.088 184.497 335.327 184.954C335.567 185.41 335.919 185.798 336.35 186.082C336.772 186.355 337.253 186.524 337.754 186.572C338.254 186.62 338.759 186.547 339.225 186.358C339.73 186.124 340.183 185.79 340.557 185.376C340.931 184.963 341.218 184.479 341.402 183.953C341.775 182.882 341.966 181.755 341.967 180.621C342.017 179.102 341.941 177.581 341.738 176.075C341.777 175.828 341.719 175.576 341.575 175.372C341.431 175.167 341.214 175.027 340.969 174.98H340.776C339.91 174.824 339.016 174.967 338.242 175.387C337.468 175.807 336.86 176.478 336.519 177.289C336.331 177.831 336.202 178.392 336.134 178.961C335.917 180.044 335.544 181.102 335.244 182.161Z" fill="url(#paint19_linear_2622_423)"/>
<path d="M335.905 179.9C335.905 179.9 335.737 181.271 336.35 181.812C336.964 182.353 339.369 183.664 340.56 182.029C341.293 180.945 341.778 179.713 341.979 178.42L335.905 179.9Z" fill="url(#paint20_linear_2622_423)"/>
<path d="M332.622 175.221C332.922 176.243 334.739 179.875 337.3 180.633C342.845 182.269 344.637 172.286 344.385 170.169C344.021 168.396 343.137 166.771 341.847 165.502C341.156 164.922 340.316 164.548 339.423 164.423C338.53 164.297 337.619 164.425 336.795 164.793C332.453 166.585 331.287 170.855 332.622 175.221Z" fill="url(#paint21_linear_2622_423)"/>
<path d="M229.606 174.571C231.359 173.873 233.245 173.573 235.127 173.693C237.199 173.501 239.284 173.897 241.141 174.836C241.968 175.415 242.702 176.117 243.318 176.917C243.548 177.174 243.742 177.461 243.895 177.771C244.041 178.154 244.098 178.565 244.063 178.974V184.675C244.089 185.049 244.028 185.423 243.883 185.769C243.414 186.707 245.086 186.768 243.883 186.707L225.012 185.757C225.301 185.757 225.625 182.606 225.613 182.293C225.434 181.263 225.491 180.206 225.782 179.202C226.489 177.266 227.839 175.631 229.606 174.571Z" fill="#6288E9"/>
<path d="M234.357 176.76C234.624 177.037 234.946 177.253 235.303 177.394C235.66 177.535 236.043 177.598 236.426 177.578C236.906 177.433 237.328 177.142 237.635 176.745C237.941 176.348 238.115 175.866 238.134 175.365C238.266 174.355 238.062 173.296 238.134 172.274C238.218 171.631 238.218 170.98 238.134 170.337C237.956 169.667 237.519 169.093 236.92 168.744C236.32 168.395 235.606 168.297 234.935 168.473C234.375 168.614 233.879 168.941 233.528 169.399C232.65 170.494 232.914 171.805 232.866 173.188C232.848 173.855 232.972 174.518 233.229 175.134C233.486 175.75 233.871 176.304 234.357 176.76Z" fill="#A67C52"/>
<path d="M233.046 171.961C233.046 171.961 234.021 175.281 235.921 175.365C237.821 175.449 238.11 174.331 238.11 174.331L238.026 172.551L233.046 171.961Z" fill="url(#paint22_linear_2622_423)"/>
<path d="M239.914 168.233C239.889 169.204 239.747 170.169 239.493 171.107C239.253 172.006 238.735 172.806 238.014 173.393C237.521 173.737 236.941 173.935 236.341 173.962C235.74 173.99 235.144 173.847 234.622 173.549C233.504 172.897 232.636 171.889 232.156 170.686C231.603 169.454 231.265 168.136 231.158 166.789C231.082 165.767 231.247 164.741 231.639 163.794C231.853 163.347 232.157 162.948 232.531 162.623C232.906 162.299 233.343 162.054 233.816 161.906C234.722 161.644 235.668 161.554 236.607 161.641C237.39 161.643 238.161 161.833 238.856 162.195C239.256 162.426 239.578 162.772 239.779 163.188C239.981 163.604 240.053 164.071 239.986 164.528C239.83 165.731 239.974 167.018 239.914 168.233Z" fill="#A67C52"/>
<path d="M232.385 167.535C232.144 167.379 232.012 166.994 231.748 166.958C231.659 166.958 231.574 166.986 231.503 167.038C231.431 167.09 231.378 167.163 231.351 167.246C231.303 167.432 231.303 167.626 231.351 167.812C231.411 168.259 231.604 168.678 231.904 169.014C232.042 169.134 232.152 169.282 232.229 169.447C232.252 169.583 232.252 169.721 232.229 169.856L232.12 170.819C231.901 170.706 231.708 170.548 231.555 170.355C231.401 170.162 231.291 169.939 231.23 169.7C231.158 169.495 231.098 169.099 230.857 169.038C230.617 168.978 230.473 169.315 230.196 169.038C230.098 168.939 230.033 168.812 230.009 168.674C229.986 168.537 230.005 168.395 230.064 168.269C229.799 168.593 229.258 168.269 229.198 167.836C229.187 167.621 229.233 167.408 229.333 167.217C229.432 167.027 229.581 166.867 229.763 166.753C229.544 166.662 229.352 166.515 229.207 166.328C229.061 166.14 228.967 165.918 228.933 165.683C228.933 165.178 229.318 164.66 229.739 164.805C229.592 164.584 229.514 164.324 229.514 164.059C229.514 163.794 229.592 163.534 229.739 163.313C229.877 163.123 230.058 162.967 230.266 162.858C230.475 162.75 230.706 162.691 230.942 162.688V161.232C230.928 160.91 230.99 160.589 231.122 160.294C231.29 160.042 231.675 159.933 231.856 160.198C231.916 159.512 232.06 158.707 232.614 158.478C232.824 158.436 233.041 158.442 233.248 158.494C233.456 158.546 233.65 158.643 233.816 158.779C233.829 158.495 233.928 158.223 234.1 157.997C234.272 157.771 234.509 157.604 234.778 157.516C235.039 157.455 235.31 157.46 235.568 157.529C235.826 157.598 236.063 157.73 236.258 157.913C236.314 157.964 236.38 158.005 236.45 158.033C236.537 158.057 236.628 158.057 236.715 158.033C237.003 157.847 237.336 157.743 237.679 157.73C238.022 157.717 238.362 157.797 238.663 157.961C238.914 158.252 239.104 158.59 239.222 158.956C239.339 159.322 239.383 159.707 239.349 160.09C239.349 159.777 239.77 159.753 240.046 159.837C240.366 159.907 240.656 160.076 240.876 160.318C241.023 160.604 241.092 160.923 241.078 161.244C241.063 161.564 240.964 161.876 240.792 162.147C241.09 162.176 241.366 162.316 241.566 162.539C241.766 162.761 241.876 163.05 241.875 163.349C241.959 164.444 241.021 164.444 240.516 165.021C240.167 165.406 240.01 165.995 239.626 166.332C239.391 166.485 239.117 166.566 238.838 166.566C238.558 166.566 238.284 166.485 238.05 166.332C237.562 166.019 237.096 165.673 236.655 165.298C236.441 165.116 236.165 165.025 235.885 165.045C235.512 165.129 235.296 165.586 234.959 165.803C234.805 165.885 234.636 165.934 234.462 165.949C234.289 165.963 234.114 165.942 233.949 165.887C233.54 165.779 233.071 165.671 232.746 166.104C232.554 166.56 232.432 167.042 232.385 167.535Z" fill="#606161"/>
<path opacity="0.5" d="M231.952 167.992C231.938 167.906 231.905 167.824 231.856 167.751C231.84 167.716 231.814 167.685 231.783 167.662C231.751 167.639 231.714 167.624 231.675 167.619C231.637 167.634 231.604 167.658 231.579 167.69C231.553 167.721 231.537 167.759 231.531 167.8C231.519 167.883 231.519 167.968 231.531 168.052C231.569 168.218 231.625 168.38 231.699 168.533C231.733 168.637 231.791 168.732 231.868 168.81C231.951 168.881 232.05 168.931 232.156 168.954H232.277C232.282 168.941 232.285 168.927 232.285 168.912C232.285 168.898 232.282 168.883 232.277 168.87C232.277 168.726 232.361 168.425 232.277 168.293C232.192 168.16 232.156 168.293 232.096 168.208C232.027 168.153 231.977 168.077 231.952 167.992Z" fill="url(#paint23_linear_2622_423)"/>
<path d="M340.067 169.062C340.194 169.038 340.324 169.038 340.452 169.062C340.596 169.125 340.717 169.23 340.8 169.363C341.104 169.795 341.52 170.136 342.003 170.349C342.235 170.462 342.497 170.497 342.75 170.449C343.004 170.402 343.235 170.274 343.41 170.085C343.74 170.449 344.098 170.787 344.481 171.095C344.564 171.182 344.674 171.237 344.793 171.251C345.13 171.251 345.154 170.746 345.058 170.422L343.711 166.019C343.577 165.432 343.314 164.881 342.941 164.408C342.138 163.759 341.122 163.433 340.091 163.494C338.575 163.397 333.427 163.337 333.163 165.634C332.79 168.497 338.202 169.339 340.067 169.062Z" fill="#FBB03B"/>
<path d="M248.081 84.5793C251.689 83.2201 255.682 83.4968 259.543 84.1343C261.755 84.384 263.89 85.0971 265.809 86.2271C269.357 88.6326 271.101 93.1671 271.919 97.5693C272.737 101.971 272.881 106.566 274.325 110.8C276.044 115.707 279.496 119.893 280.627 124.957C282.467 133.196 277.764 141.242 270.187 142.89C269.046 143.134 267.876 143.223 266.711 143.155C263.74 143.01 260.854 141.819 257.907 141.687C251.821 141.387 246.024 145.596 240.155 143.984C235.344 142.661 231.976 137.754 230.052 132.787C228.849 129.695 228.067 126.244 229.017 123.164C230.328 118.895 234.502 116.513 236.378 112.508C238.783 107.468 237.027 101.346 239.084 96.2101C240.984 91.4111 243.222 86.4075 248.081 84.5793Z" fill="#DD8049"/>
<path d="M268.888 127.579C272.208 128.421 275.948 128.24 278.666 130.465C280.325 131.943 281.421 133.949 281.769 136.142C282.106 138.298 282.191 140.486 282.022 142.662L281.769 149.096C281.792 149.33 281.723 149.563 281.577 149.746C281.48 149.818 281.369 149.87 281.251 149.897C281.133 149.924 281.01 149.926 280.891 149.902L228.644 149.325C227.79 145.837 229.991 140.304 231.699 137.297C233.13 134.771 234.466 132.233 236.715 130.453C239.746 128.048 246.806 128.156 250.161 126.22C251.039 125.726 250.258 124.921 251.244 124.692C252.23 124.464 251.797 123.165 252.759 123.189C255.514 123.297 258.965 123.044 261.66 123.946C264.354 124.848 266.158 126.881 268.888 127.579Z" fill="#6288E9"/>
<path d="M249.079 128.613C248.805 129.481 248.632 130.376 248.562 131.283C248.544 132.309 248.774 133.323 249.232 134.24C249.691 135.158 250.365 135.951 251.196 136.551C251.992 137.098 252.913 137.435 253.873 137.532C254.834 137.628 255.803 137.481 256.692 137.105C257.665 136.615 258.531 135.938 259.241 135.112C259.951 134.287 260.491 133.329 260.83 132.294C261.551 130.118 261.913 127.838 261.9 125.546C261.993 122.464 261.844 119.379 261.455 116.321C261.532 115.836 261.421 115.341 261.147 114.935C260.872 114.528 260.454 114.241 259.976 114.132H259.615C257.926 113.831 256.185 114.137 254.7 114.995C253.214 115.853 252.08 117.209 251.496 118.822C251.158 119.933 250.92 121.073 250.787 122.226C250.342 124.331 249.644 126.46 249.079 128.613Z" fill="url(#paint24_linear_2622_423)"/>
<path d="M250.33 124.03C250.33 124.03 250.017 126.821 251.172 127.915C252.326 129.01 256.945 131.644 259.218 128.312C260.641 126.074 261.564 123.555 261.924 120.927L250.33 124.03Z" fill="url(#paint25_linear_2622_423)"/>
<path d="M243.979 114.541C244.569 116.609 248.045 123.958 252.94 125.474C263.548 128.758 266.916 108.539 266.411 104.245C265.751 100.703 264.08 97.4279 261.6 94.8151C260.311 93.6615 258.712 92.9128 257.001 92.6625C255.289 92.4122 253.542 92.6715 251.978 93.4079C243.667 97.0884 241.454 105.748 243.979 114.541Z" fill="url(#paint26_linear_2622_423)"/>
<path d="M288.156 124.259C288.222 122.504 288.439 120.757 288.806 119.039C289.01 118.252 289.131 117.446 289.166 116.634C289.166 115.816 288.95 115.01 288.878 114.228C288.825 113.278 288.882 112.326 289.046 111.389C289.2 110.65 289.241 109.892 289.166 109.14C289.094 108.719 288.697 107.817 288.108 108.07C287.771 108.214 287.783 108.683 287.819 109.056C288.012 110.114 287.82 111.206 287.278 112.135C287.296 111.228 287.26 110.32 287.17 109.417C287.149 108.956 287.093 108.498 287.001 108.046C286.978 107.847 286.942 107.65 286.893 107.456C286.809 107.252 286.736 107.044 286.677 106.831C286.568 106.41 286.568 105.977 286.496 105.556C286.466 105.369 286.426 105.185 286.376 105.003C286.373 104.647 286.275 104.298 286.093 103.992C285.912 103.685 285.652 103.432 285.342 103.259C285.136 103.159 284.901 103.137 284.68 103.196C284.459 103.256 284.267 103.393 284.139 103.583C284.127 103.631 284.127 103.68 284.139 103.728C284.201 104.78 284.366 105.823 284.632 106.843C284.72 107.367 284.76 107.899 284.752 108.431C284.776 108.703 284.776 108.976 284.752 109.248C284.697 109.485 284.664 109.727 284.656 109.97L283.874 105.339C283.73 104.485 283.73 101.948 282.287 102.2C282.069 102.261 281.875 102.387 281.731 102.561C281.587 102.735 281.5 102.949 281.481 103.174C281.435 103.632 281.48 104.094 281.613 104.534C281.962 106.061 282.599 108.034 281.613 109.489C281.408 107.631 281.086 105.787 280.651 103.968C280.606 103.668 280.467 103.39 280.254 103.174C280.028 103.044 279.758 103.008 279.506 103.076C279.253 103.144 279.038 103.309 278.907 103.535C278.903 103.575 278.903 103.616 278.907 103.656C278.719 104.193 278.686 104.772 278.811 105.327C279.227 108.341 279.44 111.379 279.448 114.42C278.654 114.601 277.921 113.987 277.151 113.723C276.791 113.604 276.411 113.557 276.034 113.586C275.656 113.615 275.287 113.719 274.95 113.891C274.837 113.938 274.738 114.013 274.661 114.108C274.614 114.211 274.589 114.324 274.589 114.438C274.589 114.553 274.614 114.665 274.661 114.769C275.251 116.08 276.886 116.549 277.849 117.62C278.137 117.945 278.366 118.317 278.618 118.666C279.511 119.559 280.286 120.562 280.928 121.649C281.269 122.648 281.331 123.721 281.108 124.752C281.027 125 281.003 125.263 281.038 125.522C281.074 125.78 281.168 126.027 281.312 126.244C281.476 126.397 281.674 126.509 281.89 126.568C282.924 126.903 284.029 126.951 285.088 126.707C286.146 126.463 287.12 125.938 287.904 125.185" fill="url(#paint27_linear_2622_423)"/>
<path d="M278.149 150.48V125.017L292.306 123.766L294.495 150.456L278.149 150.48Z" fill="#6288E9"/>
<path d="M251.34 100.444C250.354 101.788 249.011 102.828 247.463 103.447C245.915 104.066 244.225 104.238 242.584 103.944C242.493 103.931 242.406 103.899 242.33 103.849C242.253 103.799 242.188 103.733 242.139 103.655C242.115 103.552 242.115 103.445 242.139 103.343L243.342 95.741C243.45 94.5796 243.798 93.4532 244.364 92.4334C245.085 91.486 246.01 90.7131 247.07 90.1722C248.191 89.4139 249.463 88.9091 250.799 88.6928C253.012 88.4883 253.926 91.4231 253.842 93.1551C253.782 95.4885 253.06 98.7239 251.34 100.444Z" fill="#DD8049"/>
<path d="M257.21 95.1518C258.513 97.8143 260.674 99.9619 263.344 101.25L269.983 105.147C269.101 103.472 268.458 101.683 268.07 99.8306C267.866 98.5262 267.577 97.2364 267.204 95.9697C266.383 93.7959 264.802 91.9929 262.754 90.894C261.275 90.0761 257.101 88.4042 255.538 89.5589C253.674 90.8579 256.428 93.8648 257.21 95.1518Z" fill="#DD8049"/>
<path d="M87.8269 299.432C87.2343 300.165 86.878 301.062 86.805 302.002C86.732 302.943 86.9457 303.883 87.4179 304.7C87.9069 305.494 88.6393 306.11 89.5061 306.454C90.373 306.799 91.328 306.854 92.2289 306.612C92.5408 306.533 92.8294 306.38 93.0708 306.167C93.588 305.674 93.6602 304.832 94.1413 304.303C94.6503 303.897 95.2548 303.627 95.8973 303.521C97.0355 303.114 98.106 302.539 99.0725 301.813C99.2467 301.725 99.3916 301.588 99.4897 301.42C99.5879 301.251 99.6352 301.058 99.6258 300.863C99.857 299.803 99.6945 298.696 99.1688 297.748C98.8768 297.4 98.5218 297.11 98.1224 296.894C97.3619 296.423 96.4906 296.162 95.5966 296.136C94.9077 296.185 94.2303 296.339 93.588 296.593C91.758 297.119 90.0411 297.98 88.5245 299.131" fill="#6288E9"/>
<path d="M91.3871 291L88.3201 301.561C88.3201 301.561 88.8974 304.219 92.1448 303.1C95.3922 301.982 98.1585 293.658 98.1585 293.658L91.3871 291Z" fill="#A67C52"/>
<path d="M123.777 313.083C124.613 312.955 125.458 312.899 126.303 312.915C126.729 312.931 127.147 313.035 127.532 313.219C127.917 313.403 128.26 313.664 128.54 313.985C128.938 314.634 129.094 315.401 128.982 316.154C128.87 316.906 128.496 317.595 127.927 318.099C126.773 319.051 125.362 319.637 123.873 319.783C122.952 319.999 121.993 319.999 121.071 319.783C119.94 319.458 118.846 318.508 117.715 318.856C117.227 319.069 116.773 319.353 116.368 319.698C115.589 320.265 114.622 320.514 113.666 320.393C112.709 320.273 111.835 319.792 111.22 319.049C110.881 318.563 110.629 318.022 110.475 317.449C110.006 315.621 110.21 313.36 111.678 312.277C113.47 310.99 114.865 311.868 116.585 312.47C118.909 313.195 121.364 313.405 123.777 313.083Z" fill="#6288E9"/>
<path d="M122.286 302.847L117.799 313.841C117.799 313.841 115.225 315.38 113.397 314.695L111.569 314.009L113.145 298.638L122.286 302.847Z" fill="#A67C52"/>
<path d="M157.598 156.361C157.538 155.868 157.514 155.279 157.899 154.99C158.284 154.701 158.488 154.773 158.645 154.521C158.729 154.35 158.754 154.155 158.717 153.968C158.701 152.966 158.794 151.966 158.993 150.985C159.04 150.319 159.26 149.676 159.631 149.12C159.945 148.774 160.354 148.527 160.807 148.41C161.26 148.292 161.737 148.309 162.181 148.459C163.091 148.783 163.856 149.423 164.334 150.263C164.806 151.091 165.159 151.982 165.38 152.909C165.579 153.557 165.697 154.228 165.729 154.906C165.729 156.987 164.322 158.707 163.648 160.655C163.588 160.876 163.481 161.081 163.335 161.256C163.174 161.378 162.985 161.457 162.785 161.487C162.586 161.516 162.382 161.495 162.193 161.425C160.975 161.201 159.841 160.652 158.909 159.837C158.116 158.846 157.657 157.629 157.598 156.361Z" fill="#A67C52"/>
<path d="M96.8475 229.598C96.8475 229.598 97.5331 241.193 98.784 246.858C100.035 252.523 100.781 258.97 100.781 258.97L89.3184 291.938C89.3184 291.938 96.2943 296.581 100.781 294.777C105.267 292.973 116.609 267.654 116.609 267.654L120.926 238.872L109.5 225.737L96.8475 229.598Z" fill="#473F47"/>
<path d="M128.516 227.277C128.516 227.277 136.694 254.075 136.694 261.027C136.694 267.979 126.892 302.246 126.892 302.246C126.892 302.246 116.26 305.854 113.77 302.246L111.28 298.638L117.294 264.118C117.294 264.118 108.875 246.076 107.323 241.446C106.409 238.593 105.76 235.662 105.387 232.689L128.516 227.277Z" fill="#473F47"/>
<path d="M125.04 153.931C125.998 155.837 126.608 157.898 126.844 160.018C126.963 161.073 126.803 162.141 126.381 163.116C125.959 164.091 125.289 164.939 124.438 165.574C123.924 165.827 123.44 166.138 122.995 166.5C121.468 168.064 123.224 170.915 122.334 172.947C121.986 173.607 121.407 174.115 120.708 174.375C120.009 174.634 119.239 174.627 118.545 174.355C117.858 174.051 117.246 173.599 116.753 173.031C116.261 172.464 115.899 171.794 115.694 171.071C115.301 169.593 115.127 168.065 115.177 166.537L115.021 157.444C114.818 155.418 115.132 153.373 115.935 151.502C116.483 150.552 117.283 149.773 118.247 149.25C119.211 148.728 120.301 148.483 121.396 148.543C123.621 148.82 124.27 152.151 125.04 153.931Z" fill="#A67C52"/>
<path d="M154.772 193.298C153.435 193.664 152.072 193.921 150.695 194.068C144.167 195.005 137.765 196.667 131.607 199.024C131.182 199.158 130.792 199.383 130.464 199.685C130.164 200.105 129.97 200.593 129.899 201.104C128.167 209.584 128.696 218.641 128.48 227.289C126.323 228.551 124.08 229.66 121.769 230.609C117.992 232.16 113.217 233.591 109.056 233.207C100.636 232.437 96.8477 229.598 96.8477 229.598L102.056 177.398C102.056 177.398 111.93 170.289 115.286 171.384C117.701 171.805 120.171 171.805 122.586 171.384C127.47 170.734 132.449 177.398 132.449 177.398C132.81 181.932 146.882 181.259 150.213 181.006C150.711 181.015 151.203 180.899 151.645 180.669C152.065 180.32 152.388 179.869 152.583 179.358C155.229 173.741 157.935 167.86 157.827 161.641C157.827 160.679 157.827 159.476 158.753 159.103C159.088 158.999 159.443 158.979 159.787 159.043C161.588 159.176 163.37 159.499 165.103 160.006C163.756 164.684 165.416 169.628 165.007 174.535C164.58 177.803 163.68 180.991 162.337 184.001C161.038 187.321 159.523 190.905 156.323 192.613C155.827 192.885 155.308 193.114 154.772 193.298Z" fill="white"/>
<path d="M124.463 144.141C124.571 143.131 124.956 142.168 124.006 141.375C123.586 141.056 123.06 140.911 122.536 140.969C122.012 141.028 121.531 141.285 121.191 141.687C121.002 141.255 120.716 140.871 120.355 140.567C119.995 140.262 119.569 140.045 119.11 139.931C118.401 139.763 117.451 140.015 117.354 140.749C116.828 139.856 115.969 139.208 114.965 138.949C113.961 138.69 112.895 138.84 112.002 139.366C111.61 139.603 111.26 139.903 110.968 140.256L108.791 139.534C108.094 139.2 107.302 139.124 106.554 139.318C105.832 139.594 105.423 140.665 106.013 141.146C105.583 141.131 105.161 141.257 104.81 141.505C104.459 141.753 104.2 142.109 104.071 142.519C103.943 142.929 103.953 143.37 104.099 143.774C104.246 144.178 104.521 144.522 104.882 144.754C104.698 144.887 104.542 145.054 104.424 145.247C104.305 145.441 104.226 145.655 104.192 145.879C104.157 146.103 104.167 146.332 104.222 146.551C104.276 146.771 104.374 146.978 104.509 147.16C104.64 147.345 104.808 147.501 105.002 147.617C104.425 147.742 103.92 148.087 103.594 148.579C103.268 149.071 103.148 149.671 103.258 150.251C103.373 150.813 103.695 151.311 104.16 151.646C103.489 152.088 103.021 152.778 102.856 153.564C102.692 154.351 102.845 155.17 103.282 155.844C103.541 156.231 103.882 156.555 104.281 156.794C103.811 157.825 103.668 158.975 103.872 160.09C103.981 160.643 104.26 161.149 104.669 161.537C105.078 161.925 105.598 162.176 106.157 162.255C105.57 162.488 105.062 162.884 104.692 163.395C104.321 163.906 104.104 164.512 104.064 165.142C104.057 165.771 104.251 166.386 104.616 166.898C104.981 167.41 105.5 167.793 106.097 167.992C106.361 168.064 106.674 168.124 106.818 168.353C106.912 168.535 106.954 168.738 106.939 168.942C106.97 169.382 107.125 169.804 107.386 170.159C107.647 170.514 108.003 170.788 108.413 170.949C108.824 171.11 109.271 171.152 109.704 171.069C110.137 170.987 110.538 170.783 110.86 170.482C110.875 170.8 111.006 171.101 111.228 171.329C111.451 171.556 111.749 171.694 112.066 171.717C112.384 171.739 112.698 171.644 112.95 171.449C113.202 171.255 113.374 170.975 113.433 170.662C113.049 172.466 116.043 170.939 116.464 170.662C117.667 169.748 118.172 168.257 119.231 167.21C120.806 165.707 123.043 165.166 122.839 162.399C122.549 160.954 121.9 159.606 120.951 158.478C120.478 157.907 120.152 157.23 120.001 156.505C119.85 155.779 119.879 155.028 120.085 154.317C120.59 153.21 121.768 152.657 122.646 151.911C123.303 151.23 123.815 150.422 124.15 149.537C124.485 148.652 124.636 147.708 124.595 146.763C124.485 145.894 124.44 145.017 124.463 144.141Z" fill="#774828"/>
<path d="M105.664 149.421C106.133 149.46 106.589 149.595 107.003 149.819C107.417 150.042 107.78 150.349 108.069 150.72C108.624 151.448 109.058 152.26 109.356 153.126C109.679 153.838 109.828 154.618 109.789 155.399C109.609 156.267 109.296 157.103 108.863 157.877C108.656 158.432 108.407 158.971 108.117 159.488C107.971 159.75 107.765 159.973 107.516 160.14C107.268 160.307 106.983 160.414 106.686 160.451C106.259 160.445 105.844 160.306 105.499 160.054C105.154 159.802 104.897 159.449 104.762 159.043C104.525 158.254 104.336 157.45 104.196 156.638C103.942 155.972 103.753 155.283 103.631 154.581C103.655 153.852 103.751 153.126 103.92 152.416C104.016 151.815 103.691 150.636 103.92 150.143C104.148 149.65 105.074 149.421 105.664 149.421Z" fill="#6288E9"/>
<path d="M91.2308 137.033C90.6784 136.845 90.0862 136.806 89.514 136.92C88.9417 137.034 88.4097 137.297 87.9714 137.682C87.3443 136.963 86.5291 136.434 85.6175 136.154C84.706 135.873 83.7342 135.853 82.8116 136.094C82.4833 136.155 82.1764 136.3 81.9216 136.515C81.6421 136.842 81.4885 137.258 81.4885 137.688C81.4885 138.118 81.6421 138.534 81.9216 138.861C82.4908 139.509 83.2091 140.008 84.0143 140.316C83.4743 140.378 82.9536 140.555 82.4869 140.833C82.2519 140.973 82.0715 141.188 81.9753 141.444C81.8791 141.7 81.8729 141.981 81.9577 142.241C82.0882 142.532 82.3186 142.766 82.6071 142.902C84.0023 143.612 85.6381 142.902 86.9851 143.792C86.1071 144.141 83.6054 150.119 84.315 150.6C82.9449 151.432 81.725 152.489 80.7068 153.727C80.1934 154.35 79.8414 155.089 79.682 155.88C79.5225 156.671 79.5606 157.489 79.7927 158.262C79.9261 158.637 80.132 158.982 80.3989 159.278C80.6657 159.573 80.9882 159.813 81.3478 159.984C81.7075 160.155 82.0973 160.254 82.495 160.274C82.8927 160.294 83.2904 160.236 83.6655 160.102C83.3537 160.473 83.1477 160.921 83.0694 161.4C82.9911 161.878 83.0433 162.369 83.2205 162.82C84.8089 163.133 86.4431 163.133 88.0315 162.82C87.8018 163.205 87.7311 163.663 87.8344 164.099C87.9378 164.535 88.2069 164.913 88.5848 165.154C88.9821 165.361 89.4456 165.404 89.8739 165.271C90.3021 165.138 90.6603 164.84 90.87 164.444C90.449 165.526 91.9043 166.573 93.0229 166.26C94.0975 165.788 94.9558 164.929 95.4284 163.855C95.4284 164.745 96.7033 165.13 97.461 164.684C98.167 164.146 98.6677 163.382 98.8803 162.519C99.3705 162.659 99.8949 162.613 100.354 162.391C100.813 162.17 101.174 161.787 101.37 161.317C101.719 160.359 101.826 159.331 101.683 158.322C102.188 159.031 103.246 158.238 103.667 157.48C104.433 156.083 105.077 154.622 105.592 153.114C105.904 152.382 106.024 151.583 105.94 150.792C105.604 148.832 103.403 148.964 102.777 147.569C101.971 145.765 103.715 144.718 101.574 142.83C99.9739 141.4 98.1389 140.257 96.15 139.45C95.7266 139.224 95.2392 139.148 94.7669 139.234C94.394 139.342 94.0091 139.643 93.6604 139.486C93.3116 139.33 93.3116 139.065 93.2153 138.813C93.032 138.391 92.7598 138.013 92.4173 137.706C92.0748 137.399 91.6701 137.169 91.2308 137.033Z" fill="#774828"/>
</g>
<defs>
<linearGradient id="paint0_linear_2622_423" x1="113.241" y1="223.32" x2="88.7998" y2="331.545" gradientUnits="userSpaceOnUse">
<stop offset="0.01"/>
<stop offset="0.08" stop-opacity="0.69"/>
<stop offset="0.21" stop-opacity="0.32"/>
<stop offset="1" stop-opacity="0"/>
</linearGradient>
<linearGradient id="paint1_linear_2622_423" x1="136.465" y1="178.732" x2="195.23" y2="325.101" gradientUnits="userSpaceOnUse">
<stop offset="0.01"/>
<stop offset="0.08" stop-opacity="0.69"/>
<stop offset="0.21" stop-opacity="0.32"/>
<stop offset="1" stop-opacity="0"/>
</linearGradient>
<linearGradient id="paint2_linear_2622_423" x1="198.629" y1="175.662" x2="61.9742" y2="194.114" gradientUnits="userSpaceOnUse">
<stop offset="0.01"/>
<stop offset="0.13" stop-opacity="0.69"/>
<stop offset="0.25" stop-opacity="0.32"/>
<stop offset="1" stop-opacity="0"/>
</linearGradient>
<linearGradient id="paint3_linear_2622_423" x1="69.7484" y1="193.524" x2="281.705" y2="156.13" gradientUnits="userSpaceOnUse">
<stop offset="0.01"/>
<stop offset="0.13" stop-opacity="0.69"/>
<stop offset="0.25" stop-opacity="0.32"/>
<stop offset="1" stop-opacity="0"/>
</linearGradient>
<linearGradient id="paint4_linear_2622_423" x1="363.604" y1="194.802" x2="122.451" y2="322.82" gradientUnits="userSpaceOnUse">
<stop offset="0.01"/>
<stop offset="0.08" stop-opacity="0.69"/>
<stop offset="0.21" stop-opacity="0.32"/>
<stop offset="1" stop-opacity="0"/>
</linearGradient>
<linearGradient id="paint5_linear_2622_423" x1="373.647" y1="213.722" x2="132.494" y2="341.74" gradientUnits="userSpaceOnUse">
<stop offset="0.01"/>
<stop offset="0.08" stop-opacity="0.69"/>
<stop offset="0.21" stop-opacity="0.32"/>
<stop offset="1" stop-opacity="0"/>
</linearGradient>
<linearGradient id="paint6_linear_2622_423" x1="374.682" y1="215.67" x2="133.528" y2="343.688" gradientUnits="userSpaceOnUse">
<stop offset="0.01"/>
<stop offset="0.08" stop-opacity="0.69"/>
<stop offset="0.21" stop-opacity="0.32"/>
<stop offset="1" stop-opacity="0"/>
</linearGradient>
<linearGradient id="paint7_linear_2622_423" x1="268.768" y1="183.929" x2="303.505" y2="277.877" gradientUnits="userSpaceOnUse">
<stop offset="0.01"/>
<stop offset="0.08" stop-opacity="0.69"/>
<stop offset="0.21" stop-opacity="0.32"/>
<stop offset="1" stop-opacity="0"/>
</linearGradient>
<linearGradient id="paint8_linear_2622_423" x1="241.021" y1="200.022" x2="332.986" y2="335.657" gradientUnits="userSpaceOnUse">
<stop offset="0.01"/>
<stop offset="0.08" stop-opacity="0.69"/>
<stop offset="0.21" stop-opacity="0.32"/>
<stop offset="1" stop-opacity="0"/>
</linearGradient>
<linearGradient id="paint9_linear_2622_423" x1="251.34" y1="217.294" x2="283.527" y2="310.316" gradientUnits="userSpaceOnUse">
<stop offset="0.01"/>
<stop offset="0.08" stop-opacity="0.69"/>
<stop offset="0.21" stop-opacity="0.32"/>
<stop offset="1" stop-opacity="0"/>
</linearGradient>
<linearGradient id="paint10_linear_2622_423" x1="469.29" y1="75.4262" x2="-48.736" y2="260.994" gradientUnits="userSpaceOnUse">
<stop offset="0.01"/>
<stop offset="0.08" stop-opacity="0.69"/>
<stop offset="0.21" stop-opacity="0.32"/>
<stop offset="1" stop-opacity="0"/>
</linearGradient>
<linearGradient id="paint11_linear_2622_423" x1="171.923" y1="46.3911" x2="424.833" y2="419.378" gradientUnits="userSpaceOnUse">
<stop offset="0.01"/>
<stop offset="0.08" stop-opacity="0.69"/>
<stop offset="0.21" stop-opacity="0.32"/>
<stop offset="1" stop-opacity="0"/>
</linearGradient>
<linearGradient id="paint12_linear_2622_423" x1="191.317" y1="175.004" x2="196.156" y2="176.365" gradientUnits="userSpaceOnUse">
<stop stop-color="#E3C5D5"/>
<stop offset="0.42" stop-color="#E8D3CF"/>
<stop offset="1" stop-color="#EFE8CB"/>
</linearGradient>
<linearGradient id="paint13_linear_2622_423" x1="194.55" y1="178.099" x2="197.091" y2="164.859" gradientUnits="userSpaceOnUse">
<stop stop-color="#010101" stop-opacity="0"/>
<stop offset="0.95" stop-color="#010101"/>
</linearGradient>
<linearGradient id="paint14_linear_2622_423" x1="190.407" y1="169.771" x2="198.534" y2="169.771" gradientUnits="userSpaceOnUse">
<stop stop-color="#E3C5D5"/>
<stop offset="0.42" stop-color="#E8D3CF"/>
<stop offset="1" stop-color="#EFE8CB"/>
</linearGradient>
<linearGradient id="paint15_linear_2622_423" x1="197.708" y1="169.289" x2="195.654" y2="169.056" gradientUnits="userSpaceOnUse">
<stop stop-color="#010101" stop-opacity="0"/>
<stop offset="0.95" stop-color="#010101"/>
</linearGradient>
<linearGradient id="paint16_linear_2622_423" x1="281.989" y1="178.219" x2="288.233" y2="178.219" gradientUnits="userSpaceOnUse">
<stop stop-color="#E3C5D5"/>
<stop offset="0.42" stop-color="#E8D3CF"/>
<stop offset="1" stop-color="#EFE8CB"/>
</linearGradient>
<linearGradient id="paint17_linear_2622_423" x1="284.054" y1="179.67" x2="293.531" y2="166.666" gradientUnits="userSpaceOnUse">
<stop stop-color="#010101" stop-opacity="0"/>
<stop offset="0.95" stop-color="#010101"/>
</linearGradient>
<linearGradient id="paint18_linear_2622_423" x1="278.855" y1="169.557" x2="289.646" y2="171.3" gradientUnits="userSpaceOnUse">
<stop stop-color="#E3C5D5"/>
<stop offset="0.42" stop-color="#E8D3CF"/>
<stop offset="1" stop-color="#EFE8CB"/>
</linearGradient>
<linearGradient id="paint19_linear_2622_423" x1="335.123" y1="180.717" x2="342.145" y2="180.717" gradientUnits="userSpaceOnUse">
<stop stop-color="#E3C5D5"/>
<stop offset="0.42" stop-color="#E8D3CF"/>
<stop offset="1" stop-color="#EFE8CB"/>
</linearGradient>
<linearGradient id="paint20_linear_2622_423" x1="337.492" y1="181.968" x2="347.848" y2="167.776" gradientUnits="userSpaceOnUse">
<stop stop-color="#010101" stop-opacity="0"/>
<stop offset="0.95" stop-color="#010101"/>
</linearGradient>
<linearGradient id="paint21_linear_2622_423" x1="331.695" y1="171.407" x2="343.799" y2="173.363" gradientUnits="userSpaceOnUse">
<stop stop-color="#E3C5D5"/>
<stop offset="0.42" stop-color="#E8D3CF"/>
<stop offset="1" stop-color="#EFE8CB"/>
</linearGradient>
<linearGradient id="paint22_linear_2622_423" x1="235.621" y1="175.45" x2="235.519" y2="164.117" gradientUnits="userSpaceOnUse">
<stop stop-color="#010101" stop-opacity="0"/>
<stop offset="0.95" stop-color="#010101"/>
</linearGradient>
<linearGradient id="paint23_linear_2622_423" x1="231.6" y1="168.494" x2="232.649" y2="167.913" gradientUnits="userSpaceOnUse">
<stop stop-color="#010101" stop-opacity="0"/>
<stop offset="0.95" stop-color="#010101"/>
</linearGradient>
<linearGradient id="paint24_linear_2622_423" x1="248.449" y1="125.71" x2="261.848" y2="125.71" gradientUnits="userSpaceOnUse">
<stop stop-color="#E3C5D5"/>
<stop offset="0.42" stop-color="#E8D3CF"/>
<stop offset="1" stop-color="#EFE8CB"/>
</linearGradient>
<linearGradient id="paint25_linear_2622_423" x1="252.883" y1="128.725" x2="273.234" y2="100.821" gradientUnits="userSpaceOnUse">
<stop stop-color="#010101" stop-opacity="0"/>
<stop offset="0.95" stop-color="#010101"/>
</linearGradient>
<linearGradient id="paint26_linear_2622_423" x1="242.502" y1="106.987" x2="265.649" y2="110.728" gradientUnits="userSpaceOnUse">
<stop stop-color="#E3C5D5"/>
<stop offset="0.42" stop-color="#E8D3CF"/>
<stop offset="1" stop-color="#EFE8CB"/>
</linearGradient>
<linearGradient id="paint27_linear_2622_423" x1="284.393" y1="136.936" x2="282.022" y2="105.078" gradientUnits="userSpaceOnUse">
<stop stop-color="#E3C5D5"/>
<stop offset="0.42" stop-color="#E8D3CF"/>
<stop offset="1" stop-color="#EFE8CB"/>
</linearGradient>
<clipPath id="clip0_2622_423">
<rect width="471" height="355" fill="white"/>
</clipPath>
</defs>
</svg>
